<?xml version="1.0" standalone="no"?>
<!DOCTYPE svg PUBLIC "-//W3C//DTD SVG 20010904//EN"
 "http://www.w3.org/TR/2001/REC-SVG-20010904/DTD/svg10.dtd">
<svg version="1.0" xmlns="http://www.w3.org/2000/svg"
 width="1466.000000pt" height="722.000000pt" viewBox="0 0 1466.000000 722.000000"
 preserveAspectRatio="xMidYMid meet">

<g transform="translate(0.000000,722.000000) scale(0.100000,-0.100000)"
fill="#000000" stroke="none">
<path d="M2 4583 l3 -2638 2 2623 3 2622 7325 0 c6504 0 7325 2 7325 15 0 13
-821 15 -7330 15 l-7330 0 2 -2637z"/>
<path d="M312 6817 c-29 -29 -52 -58 -52 -64 0 -11 99 -113 110 -113 3 0 32
26 63 58 l58 59 -51 56 c-29 32 -57 57 -64 57 -6 0 -35 -24 -64 -53z m38 -67
c0 -5 -5 -10 -11 -10 -5 0 -7 5 -4 10 3 6 8 10 11 10 2 0 4 -4 4 -10z m70 -28
c0 -4 -9 -13 -20 -20 -22 -13 -27 -3 -8 16 14 14 28 16 28 4z"/>
<path d="M1610 6854 c-12 -4 -15 -24 -15 -99 l0 -95 32 0 c31 0 32 2 27 30 -4
18 -2 30 4 30 13 0 23 -26 16 -45 -5 -12 2 -15 30 -15 20 0 36 2 36 5 0 3 -12
23 -26 45 -22 33 -24 43 -14 55 7 8 19 15 26 15 8 0 14 5 14 10 0 6 -13 10
-30 10 -23 0 -30 -5 -30 -19 0 -10 -7 -24 -15 -31 -13 -11 -15 -5 -15 49 0 62
-2 65 -40 55z"/>
<path d="M588 6828 c15 -15 16 -148 2 -148 -5 0 -10 -4 -10 -10 0 -5 14 -10
30 -10 17 0 30 5 30 10 0 6 -4 10 -10 10 -6 0 -10 27 -10 63 l0 62 27 -58 27
-59 27 54 28 53 1 -57 c0 -32 -4 -58 -10 -58 -5 0 -10 -4 -10 -10 0 -5 18 -10
40 -10 22 0 40 5 40 10 0 6 -4 10 -10 10 -14 0 -13 133 2 148 9 9 4 12 -23 12
-32 0 -38 -4 -55 -41 l-18 -41 -18 41 c-16 38 -20 41 -55 41 -29 0 -34 -3 -25
-12z"/>
<path d="M1098 6828 c15 -15 16 -148 2 -148 -5 0 -10 -4 -10 -10 0 -13 116
-13 141 0 24 13 25 53 2 76 -13 13 -14 19 -5 22 18 6 15 59 -4 66 -9 3 -43 6
-77 6 -47 0 -58 -3 -49 -12z m100 -34 c2 -13 -4 -24 -13 -28 -24 -9 -35 1 -35
30 0 21 4 25 23 22 13 -2 23 -11 25 -24z m8 -69 c8 -20 -13 -45 -37 -45 -14 0
-19 7 -19 30 0 25 4 30 25 30 14 0 28 -7 31 -15z"/>
<path d="M830 6780 c-43 -43 -11 -120 48 -120 31 0 71 33 53 44 -5 4 -12 2
-16 -4 -3 -5 -17 -10 -31 -10 -17 0 -24 5 -24 20 0 17 7 20 40 20 32 0 40 4
40 18 0 47 -73 69 -110 32z m68 -17 c2 -8 -5 -13 -17 -13 -12 0 -21 6 -21 16
0 18 31 15 38 -3z"/>
<path d="M973 6791 c-4 -3 -8 -34 -8 -69 l0 -62 38 0 c20 0 37 5 37 10 0 6 -4
10 -10 10 -5 0 -10 20 -10 45 0 43 1 45 20 33 17 -11 22 -10 29 1 16 26 1 39
-44 39 -24 -1 -48 -4 -52 -7z"/>
<path d="M1286 6784 c-9 -8 -14 -20 -11 -25 10 -15 35 -10 35 6 0 8 7 15 15
15 8 0 15 -2 15 -4 0 -2 3 -11 6 -20 5 -12 0 -16 -18 -16 -36 0 -60 -22 -56
-51 3 -22 7 -24 64 -26 l61 -1 -5 51 c-2 29 -9 60 -14 70 -11 22 -71 23 -92 1z
m64 -78 c0 -8 -5 -18 -11 -22 -14 -8 -33 11 -25 25 10 16 36 13 36 -3z"/>
<path d="M1433 6791 c-4 -3 -8 -34 -8 -69 l0 -62 31 0 31 0 -5 55 c-4 51 -3
55 17 55 18 0 21 -6 21 -43 0 -24 -5 -48 -12 -55 -9 -9 -3 -12 30 -12 23 0 42
5 42 10 0 6 -4 10 -10 10 -5 0 -10 22 -10 49 0 27 -6 53 -12 59 -14 11 -101
13 -115 3z"/>
<path d="M6444 6629 c-10 -17 13 -36 27 -22 12 12 4 33 -11 33 -5 0 -12 -5
-16 -11z"/>
<path d="M4473 6520 c27 -99 32 -110 53 -110 24 0 32 19 50 108 4 18 10 32 14
32 4 0 10 -14 14 -32 18 -90 26 -108 50 -108 21 0 26 9 45 78 11 42 25 92 30
110 9 30 8 32 -14 32 -21 0 -25 -8 -43 -82 l-19 -82 -19 79 c-18 72 -22 80
-44 80 -22 0 -26 -8 -44 -80 l-19 -79 -19 82 c-17 73 -22 82 -42 82 l-23 0 30
-110z"/>
<path d="M4930 6520 c0 -103 1 -110 20 -110 19 0 20 7 20 110 0 103 -1 110
-20 110 -19 0 -20 -7 -20 -110z"/>
<path d="M5890 6521 c0 -90 3 -111 14 -111 10 0 16 13 18 38 3 35 5 37 43 40
50 4 75 26 75 67 0 52 -19 68 -89 73 l-61 4 0 -111z m104 63 c32 -32 11 -64
-41 -64 -31 0 -33 2 -33 33 0 19 3 37 7 40 12 13 51 7 67 -9z"/>
<path d="M4770 6562 c-32 -26 -38 -90 -10 -124 17 -22 30 -28 60 -28 43 0 79
25 61 43 -7 7 -18 6 -36 -3 -19 -10 -31 -11 -43 -4 -35 23 -24 34 32 34 54 0
56 1 56 28 0 33 -8 45 -37 61 -31 16 -57 14 -83 -7z m70 -27 c17 -21 9 -27
-31 -23 -31 3 -32 4 -15 21 21 21 30 21 46 2z"/>
<path d="M5025 6555 c-32 -31 -34 -96 -5 -125 27 -27 83 -27 111 1 20 20 20
22 5 31 -13 7 -23 5 -37 -8 -15 -14 -24 -16 -37 -8 -36 23 -26 94 13 94 13 0
27 -4 30 -10 9 -15 35 -12 35 4 0 20 -39 46 -68 46 -12 0 -34 -11 -47 -25z"/>
<path d="M5213 6568 c-48 -23 -54 -112 -10 -143 35 -24 82 -19 106 11 59 75
-12 172 -96 132z m73 -54 c15 -61 -45 -104 -67 -47 -14 38 3 73 36 73 18 0 26
-7 31 -26z"/>
<path d="M5360 6495 c0 -78 2 -85 20 -85 16 0 19 8 22 63 3 59 4 62 28 62 24
0 25 -3 28 -62 3 -54 6 -63 22 -63 16 0 19 9 22 63 3 56 5 62 26 65 21 3 22 0
22 -62 0 -59 2 -66 20 -66 18 0 20 7 20 75 0 72 -1 76 -26 87 -21 10 -31 9
-55 -4 -16 -10 -29 -13 -29 -8 0 15 -38 22 -60 10 -13 -7 -20 -7 -20 0 0 5 -9
10 -20 10 -18 0 -20 -7 -20 -85z"/>
<path d="M5656 6558 c-36 -33 -39 -95 -6 -128 33 -33 120 -21 120 15 0 18 -21
20 -37 4 -16 -16 -57 -7 -61 14 -3 15 5 17 54 17 l57 0 -7 33 c-12 63 -74 86
-120 45z m70 -25 c17 -17 16 -18 -15 -21 -40 -4 -48 2 -31 23 16 19 25 19 46
-2z"/>
<path d="M6119 6568 c-51 -17 -65 -93 -24 -133 53 -54 125 -20 125 58 0 63
-43 95 -101 75z m53 -35 c30 -27 16 -93 -20 -93 -27 0 -42 20 -42 55 0 51 28
69 62 38z"/>
<path d="M6563 6572 c-24 -4 -50 -29 -40 -39 4 -3 20 0 36 7 32 13 51 7 51
-15 0 -8 -16 -16 -40 -20 -44 -7 -65 -33 -55 -65 8 -25 49 -36 81 -21 15 6 24
7 24 1 0 -6 7 -10 15 -10 12 0 15 14 15 69 0 43 -5 72 -12 78 -17 13 -48 19
-75 15z m52 -92 c10 -16 -15 -40 -41 -40 -31 0 -32 28 -1 40 30 12 35 12 42 0z"/>
<path d="M6274 6549 c-27 -30 -24 -97 6 -121 53 -43 122 -9 124 59 1 55 -24
83 -74 83 -25 0 -43 -7 -56 -21z m81 -15 c36 -36 -1 -114 -42 -88 -35 22 -21
104 17 104 5 0 16 -7 25 -16z"/>
<path d="M6440 6475 c0 -57 -4 -95 -10 -95 -5 0 -10 -7 -10 -15 0 -20 24 -19
44 1 12 12 16 37 16 110 0 87 -1 94 -20 94 -19 0 -20 -7 -20 -95z"/>
<path d="M6690 6490 c0 -73 2 -80 20 -80 18 0 20 7 20 60 0 65 17 88 52 69 14
-8 18 -22 18 -69 0 -47 3 -60 15 -60 12 0 15 14 15 68 0 74 -10 92 -50 92 -14
0 -31 -5 -38 -12 -9 -9 -12 -9 -12 0 0 7 -9 12 -20 12 -18 0 -20 -7 -20 -80z"/>
<path d="M8473 6220 c-3 -11 -10 -20 -17 -20 -8 0 -8 -2 1 -8 6 -4 13 -23 16
-42 l4 -35 1 38 c2 29 6 37 21 37 15 0 21 -8 24 -37 l4 -38 1 38 c1 22 7 37
15 37 8 0 8 3 -2 9 -12 8 -13 12 -1 25 11 14 10 16 -4 10 -9 -3 -16 -12 -16
-20 0 -8 -9 -14 -20 -14 -23 0 -26 10 -8 28 9 9 9 12 -1 12 -7 0 -15 -9 -18
-20z"/>
<path d="M4466 6184 c-18 -53 -21 -78 -5 -51 13 22 55 22 63 1 4 -9 9 -15 11
-12 7 7 -31 102 -43 106 -5 1 -17 -18 -26 -44z m40 -21 c-2 -3 -11 -3 -19 -1
-11 2 -12 9 -5 28 l10 25 9 -24 c5 -13 7 -26 5 -28z"/>
<path d="M5300 6215 c0 -10 -10 -15 -29 -15 -33 0 -47 -25 -36 -60 5 -15 15
-20 41 -20 l34 0 0 55 c0 30 -2 55 -5 55 -3 0 -5 -7 -5 -15z m-10 -55 c0 -23
-5 -30 -19 -30 -10 0 -21 7 -25 15 -8 23 4 45 25 45 14 0 19 -7 19 -30z"/>
<path d="M7310 6216 c0 -9 -12 -16 -27 -18 -25 -3 -28 -7 -28 -38 0 -32 3 -35
33 -38 l32 -3 0 55 c0 31 -2 56 -5 56 -3 0 -5 -6 -5 -14z m-5 -56 c0 -16 -6
-26 -18 -28 -19 -4 -32 20 -23 44 9 25 41 13 41 -16z"/>
<path d="M8980 6175 c0 -30 5 -55 10 -55 6 0 10 25 10 55 0 30 -4 55 -10 55
-5 0 -10 -25 -10 -55z"/>
<path d="M6968 6208 c-8 -24 7 -81 22 -86 12 -4 13 -2 3 9 -16 16 -17 56 -2
61 7 2 6 8 -4 16 -12 10 -16 10 -19 0z"/>
<path d="M7392 6203 c-8 -8 -9 -13 -2 -13 5 0 10 -16 10 -35 0 -27 4 -35 18
-34 10 0 12 3 5 6 -15 5 -18 60 -4 65 5 2 4 8 -3 14 -8 8 -15 7 -24 -3z"/>
<path d="M7958 6209 c-2 -6 -2 -28 0 -50 3 -28 9 -39 21 -38 10 0 11 2 4 6
-15 5 -18 60 -4 65 5 2 3 8 -4 15 -9 8 -15 9 -17 2z"/>
<path d="M8928 6208 c-8 -24 7 -81 22 -86 12 -4 13 -2 3 9 -16 16 -17 56 -2
61 7 2 6 8 -4 16 -12 10 -16 10 -19 0z"/>
<path d="M4564 6186 c-11 -30 1 -61 25 -64 13 -2 27 0 32 5 5 5 -3 9 -19 8
-22 0 -27 4 -27 25 0 21 4 25 28 23 15 -1 25 2 22 8 -9 14 -55 11 -61 -5z"/>
<path d="M4654 6175 c-3 -14 -4 -32 0 -40 6 -16 51 -21 60 -7 2 4 -8 8 -22 7
-22 0 -27 4 -27 25 0 21 4 25 28 23 15 -1 25 2 22 8 -4 5 -17 9 -30 9 -18 0
-26 -7 -31 -25z"/>
<path d="M4745 6181 c-11 -36 3 -61 36 -61 16 0 29 4 29 8 0 4 -10 8 -22 7
-32 0 -34 19 -3 23 35 5 30 36 -7 40 -19 2 -28 -2 -33 -17z m50 -1 c3 -5 -3
-10 -14 -10 -12 0 -21 5 -21 10 0 6 6 10 14 10 8 0 18 -4 21 -10z"/>
<path d="M4840 6181 c0 -11 9 -23 20 -26 11 -3 20 -11 20 -17 0 -6 -9 -8 -20
-5 -11 3 -20 1 -20 -5 0 -14 53 -5 58 9 2 7 -8 18 -22 24 -34 16 -34 33 0 25
17 -5 23 -3 19 4 -3 5 -17 10 -31 10 -17 0 -24 -6 -24 -19z"/>
<path d="M4927 6193 c-13 -12 -7 -23 18 -35 14 -6 25 -16 25 -21 0 -5 -11 -7
-25 -5 -14 3 -25 1 -25 -3 0 -5 14 -9 30 -9 23 0 30 5 30 19 0 10 -9 21 -20
24 -11 3 -20 11 -20 17 0 7 8 10 20 7 11 -3 20 -1 20 4 0 10 -43 12 -53 2z"/>
<path d="M5055 6190 c-4 -7 2 -9 19 -4 16 4 26 2 26 -5 0 -6 -11 -13 -25 -17
-38 -9 -34 -44 5 -44 28 0 30 2 30 40 0 36 -3 40 -24 40 -14 0 -28 -5 -31 -10z
m45 -45 c0 -8 -9 -15 -20 -15 -22 0 -27 15 -7 23 21 9 27 7 27 -8z"/>
<path d="M5141 6158 l2 -43 6 35 c4 26 11 35 26 35 15 0 22 -9 27 -35 l6 -35
-1 40 c-2 37 -4 40 -34 43 -33 3 -33 3 -32 -40z"/>
<path d="M5381 6157 l2 -42 6 35 c4 22 12 36 24 38 14 3 17 -4 18 -35 l2 -38
6 35 c9 51 38 53 44 3 l4 -38 1 42 2 42 -55 0 -55 0 1 -42z"/>
<path d="M5526 6191 c-3 -4 6 -6 19 -3 15 2 25 0 25 -7 0 -6 -6 -11 -12 -11
-10 0 -9 -3 1 -9 16 -11 6 -31 -16 -31 -9 0 -13 6 -9 15 3 8 1 15 -4 15 -6 0
-10 -9 -10 -20 0 -16 7 -20 30 -20 28 0 30 2 30 40 0 36 -3 40 -24 40 -14 0
-27 -4 -30 -9z"/>
<path d="M5611 6158 l2 -43 6 35 c9 50 41 55 41 6 0 -20 5 -36 10 -36 11 0 13
39 4 64 -4 10 -18 16 -35 16 -28 0 -29 -2 -28 -42z"/>
<path d="M5705 6190 c-4 -7 2 -9 19 -4 16 4 26 2 26 -5 0 -6 -11 -13 -25 -17
-16 -4 -25 -13 -25 -25 0 -15 7 -19 35 -19 30 0 35 3 35 24 0 13 -3 31 -6 40
-7 18 -49 22 -59 6z m45 -45 c0 -8 -9 -15 -20 -15 -22 0 -27 15 -7 23 21 9 27
7 27 -8z"/>
<path d="M5794 6185 c-4 -8 -3 -27 0 -41 6 -21 11 -25 32 -21 19 3 24 1 22
-12 -3 -10 -12 -15 -28 -13 -18 2 -22 0 -13 -9 6 -6 20 -8 32 -4 18 5 21 14
21 61 0 53 0 54 -30 54 -18 0 -33 -6 -36 -15z m51 -25 c0 -29 -32 -41 -41 -16
-9 24 4 48 23 44 12 -2 18 -12 18 -28z"/>
<path d="M5894 6186 c-11 -30 0 -61 25 -64 13 -2 27 0 32 5 5 5 -3 9 -18 8
-14 0 -28 6 -30 13 -3 8 6 12 27 12 25 0 31 4 28 18 -4 22 -56 29 -64 8z m51
-6 c4 -6 -5 -10 -20 -10 -15 0 -24 4 -20 10 3 6 12 10 20 10 8 0 17 -4 20 -10z"/>
<path d="M6038 6159 c12 -32 13 -45 4 -60 -10 -15 -9 -17 3 -13 8 4 15 8 15
10 0 2 9 26 20 54 11 27 16 50 11 50 -4 0 -13 -15 -18 -32 l-10 -33 -13 33
c-6 17 -16 32 -20 32 -5 0 -1 -18 8 -41z"/>
<path d="M6118 6175 c-14 -31 3 -55 39 -55 27 0 38 19 29 55 -9 35 -52 35 -68
0z m57 -5 c8 -26 -1 -40 -26 -40 -13 0 -19 7 -19 23 0 40 34 53 45 17z"/>
<path d="M6213 6165 c2 -37 4 -40 35 -43 32 -3 32 -3 31 40 l-2 43 -6 -35 c-4
-26 -11 -35 -26 -35 -15 0 -22 9 -27 35 l-6 35 1 -40z"/>
<path d="M6311 6158 c2 -34 3 -37 6 -13 2 17 12 36 21 43 14 11 13 12 -6 12
-19 0 -22 -5 -21 -42z"/>
<path d="M6415 6190 c-4 -7 2 -9 19 -4 16 4 26 2 26 -5 0 -6 -11 -13 -25 -17
-38 -9 -34 -44 5 -44 28 0 30 2 30 40 0 36 -3 40 -24 40 -14 0 -28 -5 -31 -10z
m45 -45 c0 -8 -9 -15 -20 -15 -22 0 -27 15 -7 23 21 9 27 7 27 -8z"/>
<path d="M6504 6186 c-11 -30 1 -61 25 -64 13 -2 27 0 32 5 5 5 -3 9 -19 8
-22 0 -27 4 -27 25 0 21 4 25 28 23 15 -1 25 2 22 8 -9 14 -55 11 -61 -5z"/>
<path d="M6594 6175 c-3 -14 -4 -32 0 -40 6 -16 51 -21 60 -7 2 4 -8 8 -22 7
-22 0 -27 4 -27 25 0 21 4 25 28 23 15 -1 25 2 22 8 -4 5 -17 9 -30 9 -18 0
-26 -7 -31 -25z"/>
<path d="M6685 6180 c-11 -35 3 -60 35 -60 23 0 31 5 36 25 4 15 1 32 -6 40
-18 22 -57 19 -65 -5z m59 -5 c8 -22 -4 -45 -24 -45 -20 0 -32 23 -24 45 4 8
14 15 24 15 10 0 20 -7 24 -15z"/>
<path d="M6783 6165 c2 -37 4 -40 35 -43 32 -3 32 -3 31 40 l-2 43 -6 -35 c-4
-26 -11 -35 -26 -35 -15 0 -22 9 -27 35 l-6 35 1 -40z"/>
<path d="M6881 6158 l2 -43 6 35 c9 51 38 53 44 3 l4 -38 1 43 c2 40 1 42 -28
42 -29 0 -30 -2 -29 -42z"/>
<path d="M7070 6191 c0 -6 7 -8 15 -5 31 12 37 -9 5 -22 -39 -17 -35 -38 9
-42 32 -3 32 -3 29 35 -3 33 -7 38 -30 41 -16 2 -28 -1 -28 -7z m50 -41 c0
-12 -28 -25 -36 -17 -9 9 6 27 22 27 8 0 14 -5 14 -10z"/>
<path d="M7161 6158 l2 -43 6 35 c9 51 38 53 44 3 l4 -38 1 43 c2 40 1 42 -28
42 -29 0 -30 -2 -29 -42z"/>
<path d="M7451 6158 c2 -34 3 -37 6 -13 2 17 12 36 21 43 14 11 13 12 -6 12
-19 0 -22 -5 -21 -42z"/>
<path d="M7510 6191 c0 -6 7 -8 15 -5 31 12 37 -9 5 -22 -39 -17 -35 -38 9
-42 32 -3 32 -3 29 35 -3 33 -7 38 -30 41 -16 2 -28 -1 -28 -7z m50 -41 c0
-12 -28 -25 -36 -17 -9 9 6 27 22 27 8 0 14 -5 14 -10z"/>
<path d="M7601 6158 l2 -43 6 35 c9 51 38 53 44 3 l4 -38 1 43 c2 40 1 42 -28
42 -29 0 -30 -2 -29 -42z"/>
<path d="M7697 6193 c-13 -12 -7 -23 18 -35 14 -6 25 -16 25 -21 0 -5 -11 -7
-25 -5 -14 3 -25 1 -25 -3 0 -5 14 -9 30 -9 23 0 30 5 30 19 0 10 -9 21 -20
24 -11 3 -20 11 -20 17 0 7 8 10 20 7 11 -3 20 -1 20 4 0 10 -43 12 -53 2z"/>
<path d="M7780 6191 c0 -6 7 -8 15 -5 31 12 37 -9 5 -22 -39 -17 -35 -38 9
-42 32 -3 32 -3 29 35 -3 33 -7 38 -30 41 -16 2 -28 -1 -28 -7z m48 -43 c-5
-16 -48 -24 -48 -10 0 11 17 20 38 21 8 1 12 -5 10 -11z"/>
<path d="M7870 6185 c-7 -8 -10 -25 -6 -40 5 -20 13 -25 36 -25 17 0 30 4 30
9 0 4 -11 6 -24 4 -25 -5 -40 16 -29 43 4 10 14 14 29 11 13 -2 24 0 24 4 0
15 -47 10 -60 -6z"/>
<path d="M8013 6160 c0 -25 2 -35 4 -22 2 12 2 32 0 45 -2 12 -4 2 -4 -23z"/>
<path d="M8050 6181 c-16 -32 4 -63 38 -59 24 3 27 7 27 38 0 31 -3 35 -27 38
-19 2 -30 -3 -38 -17z m55 -21 c0 -16 -6 -26 -18 -28 -19 -4 -32 20 -23 44 9
25 41 13 41 -16z"/>
<path d="M8140 6161 c0 -23 5 -41 10 -41 6 0 10 16 10 36 0 28 3 35 18 32 10
-2 19 -16 24 -38 l6 -35 -1 40 c-2 37 -4 40 -34 43 -32 3 -33 2 -33 -37z"/>
<path d="M8240 6180 c0 -11 4 -20 8 -20 5 0 17 -7 28 -16 18 -15 18 -15 -8
-11 -16 2 -28 0 -28 -5 0 -14 53 -5 58 9 2 7 -8 18 -22 24 -34 16 -34 33 0 25
17 -5 23 -3 19 4 -3 5 -17 10 -31 10 -17 0 -24 -5 -24 -20z"/>
<path d="M8370 6180 c-15 -28 4 -60 35 -60 13 0 26 4 30 9 3 6 -7 9 -21 8 -15
-1 -29 4 -31 11 -3 8 6 12 27 12 25 0 31 3 26 16 -3 9 -6 18 -6 20 0 14 -51 1
-60 -16z m50 0 c0 -5 -9 -10 -21 -10 -11 0 -17 5 -14 10 3 6 13 10 21 10 8 0
14 -4 14 -10z"/>
<path d="M8570 6160 c0 -22 5 -40 10 -40 6 0 10 18 10 40 0 22 -4 40 -10 40
-5 0 -10 -18 -10 -40z"/>
<path d="M8614 6186 c-11 -30 1 -61 25 -64 13 -2 27 0 32 5 5 5 -3 9 -19 8
-22 0 -27 4 -27 25 0 21 4 25 28 23 15 -1 25 2 22 8 -9 14 -55 11 -61 -5z"/>
<path d="M8700 6160 c0 -22 5 -40 10 -40 6 0 10 18 10 40 0 22 -4 40 -10 40
-5 0 -10 -18 -10 -40z"/>
<path d="M8744 6176 c-9 -39 2 -56 36 -56 16 0 30 4 30 8 0 4 -10 8 -22 7 -32
0 -34 19 -3 23 35 5 29 36 -7 40 -22 3 -29 -2 -34 -22z m51 4 c4 -6 -5 -10
-20 -10 -15 0 -24 4 -20 10 3 6 12 10 20 10 8 0 17 -4 20 -10z"/>
<path d="M8841 6158 l2 -43 6 35 c9 51 38 53 44 3 l4 -38 1 43 c2 40 1 42 -28
42 -29 0 -30 -2 -29 -42z"/>
<path d="M9021 6194 c-1 -7 5 -27 13 -45 13 -30 13 -36 -1 -51 -9 -10 -11 -18
-6 -18 15 0 27 18 47 69 20 51 14 69 -7 20 l-14 -34 -16 35 c-8 19 -16 30 -16
24z"/>
<path d="M300 5907 c-46 -23 -51 -48 -48 -239 3 -170 4 -179 26 -200 l23 -23
1102 -3 1102 -2 0 237 0 238 -1090 2 c-859 2 -1095 0 -1115 -10z m247 -153
l44 -36 -3 -67 -3 -66 -95 0 -95 0 -3 67 -3 66 47 36 c26 20 51 36 57 36 5 0
30 -16 54 -36z m223 -29 c0 -18 5 -25 20 -25 15 0 20 7 20 25 0 16 6 25 15 25
12 0 15 -14 15 -65 0 -51 -3 -65 -15 -65 -9 0 -15 9 -15 25 0 18 -5 25 -20 25
-15 0 -20 -7 -20 -25 0 -16 -6 -25 -15 -25 -12 0 -15 14 -15 65 0 51 3 65 15
65 9 0 15 -9 15 -25z m158 -17 c7 -7 12 -24 12 -38 0 -32 -17 -50 -47 -50 -38
0 -56 55 -27 84 18 19 45 21 62 4z m150 -40 c2 -38 0 -48 -12 -48 -12 0 -16
10 -16 35 0 19 -4 35 -10 35 -5 0 -10 -16 -10 -35 0 -24 -5 -35 -15 -35 -10 0
-15 11 -15 35 0 19 -4 35 -10 35 -5 0 -10 -16 -10 -35 0 -24 -5 -35 -15 -35
-11 0 -15 12 -15 50 l0 50 63 -2 62 -3 3 -47z m91 38 c6 -7 10 -28 8 -47 -2
-29 -6 -34 -32 -37 -47 -6 -73 48 -39 82 19 20 48 21 63 2z"/>
<path d="M447 5732 c-35 -26 -37 -30 -35 -77 l3 -50 75 0 75 0 3 46 c3 44 1
48 -36 78 -22 17 -41 31 -43 31 -2 -1 -21 -13 -42 -28z m93 -102 c0 -5 -22
-10 -50 -10 -27 0 -50 5 -50 10 0 6 23 10 50 10 28 0 50 -4 50 -10z"/>
<path d="M885 5680 c-7 -12 2 -30 16 -30 5 0 9 9 9 20 0 21 -15 27 -25 10z"/>
<path d="M5171 5444 c-222 -48 -399 -226 -446 -449 -19 -88 -18 -142 0 -230
48 -225 225 -403 450 -450 88 -19 142 -18 230 0 225 48 403 225 450 450 19 88
18 142 0 230 -52 245 -249 425 -502 460 l-53 7 0 -110 0 -109 52 -6 c146 -18
277 -152 298 -305 33 -244 -174 -447 -418 -410 -197 30 -331 215 -300 416 23
153 156 285 301 300 l47 5 0 108 c0 125 8 119 -109 93z"/>
<path d="M6140 5335 l0 -65 44 0 c36 0 46 4 51 20 3 11 3 25 -2 32 -4 7 -6 24
-4 37 3 29 -13 41 -56 41 l-33 0 0 -65z m68 28 c5 -17 -26 -29 -40 -15 -6 6
-7 15 -3 22 9 14 37 9 43 -7z m2 -58 c0 -9 -9 -15 -25 -15 -16 0 -25 6 -25 15
0 9 9 15 25 15 16 0 25 -6 25 -15z"/>
<path d="M6470 5336 c0 -52 3 -66 15 -66 8 0 15 7 15 17 0 15 1 15 18 0 26
-24 50 -23 29 1 -20 22 -22 43 -5 60 9 9 8 12 -4 12 -9 0 -20 -6 -25 -12 -5
-9 -9 -3 -13 16 -3 16 -11 31 -17 34 -10 3 -13 -14 -13 -62z"/>
<path d="M6653 5383 c-3 -10 -14 -39 -24 -65 -15 -39 -16 -48 -5 -48 8 0 16 7
20 15 3 8 17 15 31 15 16 0 25 -6 25 -15 0 -8 7 -15 16 -15 9 0 14 6 12 13 -3
6 -13 36 -22 65 -18 53 -41 68 -53 35z m25 -62 c-15 -6 -20 7 -12 31 l8 23 6
-25 c3 -14 2 -27 -2 -29z"/>
<path d="M7562 5388 c-17 -17 -15 -29 3 -22 12 5 15 -4 15 -45 0 -28 5 -51 10
-51 6 0 10 28 10 65 0 66 -10 81 -38 53z"/>
<path d="M7289 5373 c-5 -78 17 -131 43 -105 9 9 9 12 0 12 -9 0 -12 14 -11
43 3 44 -5 67 -22 67 -5 0 -9 -8 -10 -17z"/>
<path d="M6274 5354 c-18 -15 -18 -15 9 -9 36 7 32 -17 -4 -25 -54 -13 -22
-64 34 -53 24 5 27 10 27 44 0 28 -5 41 -19 49 -25 13 -24 13 -47 -6z m36 -53
c0 -12 -20 -25 -27 -18 -7 7 6 27 18 27 5 0 9 -4 9 -9z"/>
<path d="M6388 5362 c-26 -3 -28 -7 -28 -48 0 -32 4 -44 15 -44 10 0 15 11 15
35 0 24 5 35 15 35 10 0 15 -11 15 -35 0 -24 5 -35 15 -35 11 0 15 11 15 40 0
44 -17 58 -62 52z"/>
<path d="M6760 5350 c-11 -11 -20 -27 -20 -35 0 -16 34 -55 48 -55 15 0 47 28
40 36 -4 4 -14 1 -22 -5 -20 -17 -36 -6 -36 24 0 30 16 41 36 24 8 -6 18 -9
22 -5 7 8 -25 36 -40 36 -4 0 -17 -9 -28 -20z"/>
<path d="M6878 5362 c-37 -7 -34 -85 2 -97 21 -7 60 10 60 25 0 13 -27 13 -35
0 -8 -13 -35 6 -35 25 0 19 27 38 35 25 9 -15 35 -12 29 4 -6 16 -31 24 -56
18z"/>
<path d="M6970 5350 c-11 -11 -20 -27 -20 -35 0 -16 34 -55 48 -55 20 0 52 34
52 55 0 21 -32 55 -52 55 -5 0 -17 -9 -28 -20z m45 -36 c0 -19 -5 -29 -15 -29
-16 0 -25 28 -16 51 10 25 31 10 31 -22z"/>
<path d="M7203 5363 c-20 -4 -23 -11 -23 -49 0 -24 5 -44 10 -44 6 0 10 16 10
35 0 28 4 35 20 35 16 0 20 -7 20 -35 0 -19 5 -35 10 -35 14 0 12 74 -2 88 -7
7 -14 11 -17 11 -4 -1 -16 -4 -28 -6z"/>
<path d="M7366 5358 c-24 -13 -20 -37 9 -48 14 -5 25 -14 25 -20 0 -13 -17
-13 -25 0 -7 11 -25 4 -25 -9 0 -14 42 -21 62 -10 27 15 22 39 -12 50 -36 13
-30 32 7 23 17 -5 24 -3 20 3 -10 16 -42 22 -61 11z"/>
<path d="M7070 5321 c0 -46 15 -61 53 -54 25 5 27 9 27 49 0 24 -4 44 -10 44
-5 0 -10 -16 -10 -35 0 -28 -4 -35 -20 -35 -16 0 -20 7 -20 35 0 19 -4 35 -10
35 -5 0 -10 -17 -10 -39z"/>
<path d="M7452 5349 c2 -6 8 -10 13 -10 5 0 11 4 13 10 2 6 -4 11 -13 11 -9 0
-15 -5 -13 -11z"/>
<path d="M7452 5279 c2 -6 8 -10 13 -10 5 0 11 4 13 10 2 6 -4 11 -13 11 -9 0
-15 -5 -13 -11z"/>
<path d="M428 5118 c-13 -13 -17 -18 -8 -12 8 6 24 16 35 22 11 6 15 12 8 12
-7 0 -22 -10 -35 -22z"/>
<path d="M556 5110 c6 -8 16 -24 22 -35 6 -11 12 -15 12 -8 0 7 -10 22 -22 35
-13 13 -18 17 -12 8z"/>
<path d="M740 5045 c0 -61 19 -77 21 -17 l1 37 15 -37 c19 -46 39 -49 48 -8
10 43 25 47 25 6 0 -20 5 -36 10 -36 6 0 10 25 10 55 0 48 -3 55 -19 55 -14 0
-24 -12 -34 -42 l-14 -43 -13 43 c-9 29 -19 42 -32 42 -15 0 -18 -8 -18 -55z"/>
<path d="M1030 5044 l0 -55 38 3 c30 2 38 7 40 26 2 12 -2 22 -9 22 -9 0 -9 3
0 14 19 23 2 46 -35 46 l-34 0 0 -56z m49 37 c16 -10 6 -31 -15 -31 -8 0 -14
9 -14 20 0 22 7 25 29 11z m6 -61 c0 -8 -8 -16 -17 -18 -13 -2 -18 3 -18 18 0
15 5 20 18 18 9 -2 17 -10 17 -18z"/>
<path d="M1320 5045 c0 -30 5 -55 10 -55 6 0 10 7 10 17 0 15 1 15 18 0 27
-25 37 -21 19 7 -14 21 -15 26 -1 37 8 6 12 14 9 17 -3 3 -14 -3 -25 -13 -20
-18 -20 -17 -20 13 0 18 -4 32 -10 32 -5 0 -10 -25 -10 -55z"/>
<path d="M473 5083 c9 -2 23 -2 30 0 6 3 -1 5 -18 5 -16 0 -22 -2 -12 -5z"/>
<path d="M890 5064 c0 -4 5 -24 12 -46 10 -33 9 -41 -2 -48 -18 -11 -8 -22 12
-15 17 7 61 115 47 115 -5 0 -15 -15 -22 -32 l-14 -33 -7 33 c-4 17 -12 32
-17 32 -5 0 -9 -3 -9 -6z"/>
<path d="M1135 5060 c-5 -9 -1 -10 13 -6 11 4 23 3 26 -3 3 -5 -5 -12 -19 -15
-16 -4 -25 -13 -25 -26 0 -16 7 -20 36 -20 35 0 35 1 32 38 -3 32 -7 37 -30
40 -14 2 -29 -2 -33 -8z m37 -52 c-6 -6 -15 -8 -19 -4 -4 4 -1 11 7 16 19 12
27 3 12 -12z"/>
<path d="M1220 5028 c0 -46 17 -51 22 -5 2 20 8 32 18 32 10 0 16 -12 18 -32
4 -40 22 -44 22 -5 0 39 -11 51 -48 50 -30 -1 -32 -3 -32 -40z"/>
<path d="M1417 5063 c-15 -14 -6 -33 18 -39 14 -3 25 -11 25 -16 0 -6 -11 -7
-27 -3 -21 5 -25 4 -17 -5 16 -17 58 -8 62 12 2 12 -5 19 -22 24 -14 3 -26 11
-26 16 0 6 11 7 26 4 17 -5 23 -3 19 4 -7 11 -48 14 -58 3z"/>
<path d="M480 5040 c8 -5 20 -10 25 -10 6 0 3 5 -5 10 -8 5 -19 10 -25 10 -5
0 -3 -5 5 -10z"/>
<path d="M390 5013 c0 -7 10 -22 23 -35 12 -13 17 -17 11 -8 -6 8 -16 24 -22
35 -6 11 -12 15 -12 8z"/>
<path d="M483 4993 c9 -2 23 -2 30 0 6 3 -1 5 -18 5 -16 0 -22 -2 -12 -5z"/>
<path d="M541 4964 c-19 -13 -29 -24 -23 -24 6 0 24 11 39 25 35 31 28 31 -16
-1z"/>
<path d="M11870 4965 c0 -8 7 -15 15 -15 8 0 15 7 15 15 0 8 -7 15 -15 15 -8
0 -15 -7 -15 -15z"/>
<path d="M11430 4885 c0 -69 3 -85 15 -85 9 0 15 9 15 24 0 18 7 25 32 30 44
9 58 23 58 60 0 44 -16 56 -72 56 l-48 0 0 -85z m86 40 c8 -20 -13 -45 -37
-45 -14 0 -19 7 -19 30 0 25 4 30 25 30 14 0 28 -7 31 -15z"/>
<path d="M12280 4885 c0 -69 3 -85 15 -85 9 0 15 9 15 23 0 19 8 25 45 35 53
14 68 46 41 87 -14 21 -24 25 -66 25 l-50 0 0 -85z m85 25 c0 -20 -6 -26 -27
-28 -25 -3 -28 0 -28 28 0 28 3 31 28 28 21 -2 27 -8 27 -28z"/>
<path d="M12790 4885 c0 -69 3 -85 15 -85 12 0 15 16 15 85 0 69 -3 85 -15 85
-12 0 -15 -16 -15 -85z"/>
<path d="M12567 4940 c-8 -32 8 -131 24 -141 21 -13 39 -11 39 6 0 8 -4 15
-10 15 -5 0 -10 18 -10 40 0 22 5 40 10 40 6 0 10 7 10 15 0 8 -4 15 -10 15
-5 0 -10 7 -10 15 0 23 -37 18 -43 -5z"/>
<path d="M6152 4923 c12 -3 18 -18 21 -51 l3 -47 2 47 c2 35 6 48 20 51 9 3
-1 5 -23 5 -22 0 -32 -2 -23 -5z"/>
<path d="M6433 4880 c0 -30 2 -43 4 -27 2 15 2 39 0 55 -2 15 -4 2 -4 -28z"/>
<path d="M6510 4909 c-17 -31 -4 -68 25 -75 24 -6 62 12 50 24 -2 3 -11 0 -18
-7 -23 -18 -47 -2 -47 30 0 32 24 49 43 30 17 -17 31 -13 17 4 -18 22 -57 19
-70 -6z"/>
<path d="M7050 4880 l0 -51 33 3 c31 3 32 5 32 48 0 43 -1 45 -32 48 l-33 3 0
-51z m50 25 c0 -8 -9 -15 -20 -15 -11 0 -20 7 -20 15 0 8 9 15 20 15 11 0 20
-7 20 -15z m8 -42 c5 -17 -26 -29 -40 -15 -6 6 -7 15 -3 22 9 14 37 9 43 -7z"/>
<path d="M7223 4880 c0 -30 2 -43 4 -27 2 15 2 39 0 55 -2 15 -4 2 -4 -28z"/>
<path d="M11597 4918 c-9 -7 -20 -27 -23 -45 -5 -26 -1 -37 19 -57 15 -14 33
-26 42 -26 25 0 65 46 65 75 0 50 -63 83 -103 53z m63 -38 c14 -26 -4 -63 -28
-58 -18 3 -28 39 -18 64 8 20 34 17 46 -6z"/>
<path d="M11742 4914 c-44 -30 -17 -124 36 -124 36 0 62 29 62 69 0 62 -49 90
-98 55z m66 -52 c4 -38 -20 -54 -45 -29 -23 23 -9 69 20 65 17 -2 23 -11 25
-36z"/>
<path d="M11870 4856 c0 -41 -4 -78 -10 -81 -18 -11 -10 -26 13 -23 21 3 22 8
25 91 2 73 0 87 -13 87 -12 0 -15 -14 -15 -74z"/>
<path d="M11948 4919 c-30 -17 -21 -30 16 -24 41 8 59 -12 19 -21 -49 -10 -53
-13 -53 -37 0 -33 23 -51 52 -41 13 4 31 7 41 5 14 -2 17 6 17 53 0 44 -4 57
-19 66 -25 13 -51 12 -73 -1z m60 -81 c-7 -20 -48 -23 -48 -4 0 11 9 16 26 16
16 0 24 -5 22 -12z"/>
<path d="M12070 4865 c0 -51 3 -65 15 -65 10 0 15 10 15 34 0 47 9 66 30 66
21 0 30 -19 30 -66 0 -24 5 -34 15 -34 21 0 21 93 -1 114 -18 19 -45 21 -62 4
-9 -9 -12 -9 -12 0 0 7 -7 12 -15 12 -12 0 -15 -14 -15 -65z"/>
<path d="M12448 4919 c-30 -17 -21 -30 16 -24 20 4 36 2 40 -4 4 -6 -8 -13
-29 -17 -19 -3 -39 -13 -44 -22 -20 -36 19 -74 55 -54 9 5 25 7 35 5 17 -5 19
1 19 45 0 72 -39 102 -92 71z m56 -84 c-4 -8 -15 -15 -25 -15 -10 0 -19 7 -19
15 0 9 9 15 25 15 18 0 23 -4 19 -15z"/>
<path d="M12667 4912 c-25 -28 -22 -87 5 -106 30 -21 51 -20 79 4 l24 20 -44
-3 c-28 -1 -45 3 -48 11 -3 8 9 12 41 12 39 0 46 3 46 20 0 27 -35 60 -63 60
-13 0 -31 -8 -40 -18z m63 -27 c0 -9 -9 -15 -25 -15 -24 0 -32 10 -18 23 12
13 43 7 43 -8z"/>
<path d="M6307 4913 c-2 -5 -2 -25 0 -45 4 -27 10 -38 22 -38 13 0 13 2 2 9
-9 6 -12 20 -9 40 4 30 -5 51 -15 34z"/>
<path d="M6967 4913 c-2 -5 -2 -25 0 -45 4 -27 10 -38 22 -38 13 0 13 2 2 9
-9 6 -12 20 -9 40 4 30 -5 51 -15 34z"/>
<path d="M6230 4896 c-6 -8 -10 -25 -8 -38 2 -17 10 -23 28 -23 20 0 26 6 28
29 5 40 -25 59 -48 32z m38 -32 c-4 -25 -32 -24 -36 0 -4 21 18 40 31 27 5 -5
7 -17 5 -27z"/>
<path d="M6360 4899 c-12 -8 -10 -9 7 -4 12 3 24 1 28 -4 3 -6 -6 -13 -20 -17
-35 -9 -29 -39 8 -40 24 -1 27 2 27 31 0 21 -6 35 -16 39 -19 7 -16 8 -34 -5z
m35 -50 c-8 -12 -35 -12 -35 0 0 11 22 20 33 14 4 -2 5 -9 2 -14z"/>
<path d="M6613 4875 c2 -36 5 -40 30 -41 25 -1 27 1 26 40 -1 42 -3 41 -13 -7
-9 -37 -29 -30 -38 14 -6 34 -6 34 -5 -6z"/>
<path d="M6691 4865 c1 -27 3 -32 6 -15 3 14 11 32 19 40 11 14 11 16 -6 16
-17 0 -20 -7 -19 -41z"/>
<path d="M6751 4865 c2 -33 3 -35 6 -10 3 16 12 35 21 41 15 12 15 13 -5 11
-20 -1 -23 -6 -22 -42z"/>
<path d="M6812 4901 c-20 -12 -11 -65 12 -69 10 -2 23 1 29 7 9 9 5 11 -13 9
-21 -3 -25 1 -25 22 0 16 6 25 15 25 8 0 14 -6 13 -12 -2 -7 2 -13 7 -13 14 0
13 13 -2 28 -14 14 -19 15 -36 3z"/>
<path d="M6881 4865 c2 -28 3 -32 6 -13 2 14 11 32 18 38 16 13 20 8 29 -40 2
-14 3 -7 3 15 -2 36 -4 40 -29 40 -26 1 -28 -2 -27 -40z"/>
<path d="M7150 4899 c-12 -8 -10 -9 7 -4 12 3 24 1 28 -4 3 -6 -6 -13 -20 -17
-35 -9 -29 -39 8 -40 24 -1 27 2 27 31 0 21 -6 35 -16 39 -19 7 -16 8 -34 -5z
m35 -50 c-8 -12 -35 -12 -35 0 0 11 22 20 33 14 4 -2 5 -9 2 -14z"/>
<path d="M7265 4900 c-4 -7 0 -10 11 -8 14 2 18 -3 19 -21 0 -13 -6 -26 -14
-29 -10 -3 -12 0 -8 12 5 12 3 16 -5 14 -25 -9 -13 -33 15 -34 26 -1 28 1 25
35 -3 36 -28 55 -43 31z"/>
<path d="M7341 4866 c1 -26 3 -32 6 -16 8 47 12 53 28 40 7 -6 16 -24 18 -38
4 -25 4 -25 6 4 1 34 -13 51 -41 51 -14 0 -18 -9 -17 -41z"/>
<path d="M7430 4896 c-28 -35 13 -87 43 -57 9 9 5 11 -13 9 -17 -2 -25 3 -28
16 -5 23 18 39 35 24 9 -7 13 -7 13 0 0 5 -7 13 -16 16 -21 8 -20 8 -34 -8z"/>
<path d="M7510 4896 c-27 -33 12 -88 41 -59 6 6 1 9 -12 9 -16 -1 -23 5 -24
21 -2 28 21 38 34 15 9 -15 10 -15 11 -1 0 9 -7 20 -16 23 -21 8 -20 8 -34 -8z"/>
<path d="M6220 4640 c0 -6 -8 -13 -17 -17 -33 -11 -53 -36 -53 -65 0 -22 8
-33 35 -49 25 -15 35 -28 35 -45 0 -27 -27 -34 -36 -9 -4 8 -15 15 -25 15 -10
0 -19 -7 -19 -15 0 -20 36 -55 55 -55 9 0 18 -7 21 -15 7 -18 24 -20 24 -2 0
7 13 18 30 24 19 7 31 20 36 39 8 33 -4 54 -39 72 -18 9 -27 21 -27 38 0 13 5
24 10 24 6 0 10 -4 10 -10 0 -5 11 -10 25 -10 23 0 24 2 13 25 -6 14 -22 28
-35 31 -13 4 -23 12 -23 20 0 8 -4 14 -10 14 -5 0 -10 -5 -10 -10z m0 -81 c0
-24 -23 -21 -28 4 -2 10 3 17 12 17 10 0 16 -9 16 -21z m46 -108 c-13 -20 -26
-11 -26 16 0 25 1 26 16 11 9 -9 13 -21 10 -27z"/>
<path d="M11420 4585 c0 -30 5 -55 10 -55 6 0 10 7 10 15 0 9 9 15 24 15 27 0
41 27 31 60 -5 15 -15 20 -41 20 l-34 0 0 -55z m64 30 c8 -23 -4 -45 -25 -45
-14 0 -19 7 -19 30 0 23 5 30 19 30 10 0 21 -7 25 -15z"/>
<path d="M11524 4626 c-3 -8 -4 -25 -2 -38 2 -18 9 -23 33 -23 28 0 30 3 30
35 0 31 -3 35 -28 38 -17 2 -29 -2 -33 -12z m51 -26 c0 -16 -6 -26 -18 -28
-19 -4 -32 20 -23 44 9 25 41 13 41 -16z"/>
<path d="M11618 4615 c-14 -31 3 -55 39 -55 27 0 38 19 29 55 -9 35 -52 35
-68 0z m57 -5 c8 -26 -1 -40 -26 -40 -13 0 -19 7 -19 23 0 40 34 53 45 17z"/>
<path d="M11708 4585 c-3 -54 4 -71 16 -39 9 24 7 94 -3 94 -5 0 -11 -25 -13
-55z"/>
<path d="M11755 4630 c-4 -7 2 -9 19 -4 16 4 26 2 26 -5 0 -6 -11 -13 -25 -17
-38 -9 -34 -44 5 -44 28 0 30 2 30 40 0 36 -3 40 -24 40 -14 0 -28 -5 -31 -10z
m45 -45 c0 -8 -9 -15 -20 -15 -22 0 -27 15 -7 23 21 9 27 7 27 -8z"/>
<path d="M11841 4598 c1 -44 3 -43 13 5 9 40 39 32 48 -13 l6 -35 -1 40 c-2
37 -4 40 -34 43 -33 3 -33 3 -32 -40z"/>
<path d="M6360 4600 c-11 -11 -20 -27 -20 -35 0 -22 29 -18 50 8 15 18 22 20
37 11 32 -20 25 -40 -31 -102 -31 -33 -56 -65 -56 -71 0 -7 26 -11 75 -11 68
0 75 2 75 20 0 17 -7 20 -42 20 l-42 0 31 33 c34 36 53 68 53 91 0 28 -38 56
-75 56 -22 0 -43 -8 -55 -20z"/>
<path d="M6543 4603 c-13 -8 -23 -24 -23 -34 0 -23 13 -24 30 -4 24 29 30 14
30 -75 0 -83 1 -90 20 -90 19 0 20 7 20 110 l0 110 -27 -1 c-16 0 -38 -7 -50
-16z"/>
<path d="M6681 4601 c-24 -24 -36 -79 -27 -127 9 -48 38 -74 81 -74 43 0 72
26 81 74 15 84 -19 146 -81 146 -21 0 -43 -8 -54 -19z m87 -41 c16 -30 9 -97
-11 -118 -33 -33 -74 22 -63 86 10 64 48 80 74 32z"/>
<path d="M11948 4603 c6 -2 18 -2 25 0 6 3 1 5 -13 5 -14 0 -19 -2 -12 -5z"/>
<path d="M395 4489 c-11 -16 -1 -19 13 -3 7 8 8 14 3 14 -5 0 -13 -5 -16 -11z"/>
<path d="M530 4491 c0 -5 9 -7 20 -4 11 3 20 7 20 9 0 2 -9 4 -20 4 -11 0 -20
-4 -20 -9z"/>
<path d="M1420 4460 c0 -5 5 -10 11 -10 5 0 7 5 4 10 -3 6 -8 10 -11 10 -2 0
-4 -4 -4 -10z"/>
<path d="M1820 4460 c0 -5 5 -10 11 -10 5 0 7 5 4 10 -3 6 -8 10 -11 10 -2 0
-4 -4 -4 -10z"/>
<path d="M753 4453 c13 -3 17 -15 17 -54 0 -27 5 -49 10 -49 6 0 10 20 10 45
0 38 4 47 23 55 17 7 11 9 -28 8 -27 0 -42 -2 -32 -5z"/>
<path d="M1700 4405 c0 -30 5 -55 10 -55 6 0 10 11 10 25 0 20 5 25 25 25 20
0 25 -5 25 -25 0 -14 5 -25 10 -25 6 0 10 25 10 55 0 30 -4 55 -10 55 -5 0
-10 -11 -10 -25 0 -20 -5 -25 -25 -25 -20 0 -25 5 -25 25 0 14 -4 25 -10 25
-5 0 -10 -25 -10 -55z"/>
<path d="M1361 4436 c-8 -10 -9 -16 -1 -21 5 -3 10 -19 10 -36 0 -19 5 -29 15
-29 13 0 13 3 3 20 -10 16 -10 24 -1 39 16 26 -7 50 -26 27z"/>
<path d="M1948 4439 c-2 -5 -2 -28 0 -50 3 -32 8 -39 26 -38 11 0 15 3 9 6
-16 6 -17 63 -2 63 6 0 4 7 -5 15 -17 18 -23 19 -28 4z"/>
<path d="M840 4390 c0 -22 5 -40 10 -40 6 0 10 13 10 30 0 17 7 33 18 39 14 9
13 10 -10 11 -26 0 -28 -3 -28 -40z"/>
<path d="M905 4420 c-5 -9 -1 -10 13 -6 11 4 23 3 26 -3 3 -5 -5 -12 -19 -15
-16 -4 -25 -13 -25 -26 0 -16 7 -20 36 -20 35 0 35 1 32 38 -3 32 -7 37 -30
40 -14 2 -29 -2 -33 -8z m37 -52 c-6 -6 -15 -8 -19 -4 -4 4 -1 11 7 16 19 12
27 3 12 -12z"/>
<path d="M990 4388 c0 -46 17 -51 22 -5 2 20 8 32 18 32 10 0 16 -12 18 -32 4
-40 22 -44 22 -5 0 39 -11 51 -48 50 -30 -1 -32 -3 -32 -40z"/>
<path d="M1097 4423 c-15 -14 -6 -33 18 -39 14 -3 25 -11 25 -16 0 -6 -11 -7
-25 -4 -15 4 -25 2 -25 -4 0 -7 14 -10 32 -8 42 4 51 34 14 44 -14 3 -26 10
-26 15 0 5 12 6 26 3 19 -5 25 -4 20 5 -8 12 -48 15 -59 4z"/>
<path d="M1180 4419 c0 -6 7 -8 16 -5 31 12 36 -7 4 -20 -41 -17 -34 -38 13
-42 34 -3 37 -1 37 22 0 42 -10 56 -41 56 -16 0 -29 -5 -29 -11z m45 -50 c-8
-12 -35 -12 -35 0 0 11 22 20 33 14 4 -2 5 -9 2 -14z"/>
<path d="M1274 4416 c-3 -8 -4 -25 -2 -38 2 -18 10 -24 36 -26 18 -2 32 1 32
7 0 6 -10 10 -22 8 -18 -2 -23 3 -23 23 0 20 4 25 23 23 13 -2 21 1 17 7 -9
15 -55 12 -61 -4z"/>
<path d="M1420 4390 c0 -22 5 -40 10 -40 6 0 10 18 10 40 0 22 -4 40 -10 40
-5 0 -10 -18 -10 -40z"/>
<path d="M1464 4416 c-3 -8 -4 -25 -2 -38 4 -32 63 -39 73 -9 11 36 -3 61 -36
61 -16 0 -32 -6 -35 -14z m51 -26 c0 -27 -22 -39 -31 -16 -8 22 3 49 19 43 6
-2 12 -14 12 -27z"/>
<path d="M1560 4390 c0 -22 5 -40 10 -40 6 0 10 13 10 29 0 28 15 49 27 38 3
-4 9 -21 13 -39 8 -33 8 -33 9 10 1 42 1 42 -34 42 -34 0 -35 -1 -35 -40z"/>
<path d="M1820 4390 c0 -22 5 -40 10 -40 6 0 10 18 10 40 0 22 -4 40 -10 40
-5 0 -10 -18 -10 -40z"/>
<path d="M1860 4411 c0 -11 9 -23 20 -26 11 -3 20 -11 20 -16 0 -6 -9 -7 -20
-4 -12 4 -20 2 -20 -5 0 -15 62 -9 68 7 2 7 -8 18 -22 24 -30 14 -35 33 -6 24
11 -4 20 -2 20 4 0 6 -13 11 -30 11 -23 0 -30 -5 -30 -19z"/>
<path d="M2004 4416 c-3 -8 -4 -25 -2 -38 2 -18 10 -24 35 -26 28 -3 33 1 39
23 4 15 1 31 -6 40 -16 19 -59 19 -66 1z m51 -26 c0 -27 -22 -39 -31 -16 -8
22 3 49 19 43 6 -2 12 -14 12 -27z"/>
<path d="M2100 4390 c0 -22 5 -40 10 -40 6 0 10 13 10 30 0 17 7 33 18 39 14
9 13 10 -10 11 -26 0 -28 -3 -28 -40z"/>
<path d="M2160 4425 c0 -3 7 -22 15 -42 11 -25 12 -40 5 -47 -17 -17 -11 -27
8 -17 10 5 24 27 31 48 7 21 15 44 17 51 3 6 1 12 -5 12 -6 0 -13 -11 -17 -25
-3 -14 -10 -25 -14 -25 -4 0 -11 11 -14 25 -5 21 -26 37 -26 20z"/>
<path d="M11420 4375 l0 -55 34 0 c26 0 36 5 41 20 10 33 -4 60 -31 60 -15 0
-24 6 -24 15 0 8 -4 15 -10 15 -5 0 -10 -25 -10 -55z m64 0 c8 -23 -4 -45 -25
-45 -14 0 -19 7 -19 30 0 23 5 30 19 30 10 0 21 -7 25 -15z"/>
<path d="M11522 4375 c1 -47 2 -52 7 -25 4 26 11 35 26 35 15 0 22 -9 27 -35
l6 -35 -1 40 c-2 36 -5 40 -29 43 -15 2 -29 11 -31 20 -3 9 -5 -10 -5 -43z"/>
<path d="M11911 4377 l-1 -58 33 3 c29 3 32 6 32 38 0 31 -3 35 -25 35 -16 0
-27 7 -32 20 -3 11 -6 -5 -7 -38z m54 -17 c0 -16 -6 -26 -18 -28 -19 -4 -32
20 -23 44 9 25 41 13 41 -16z"/>
<path d="M12012 4375 c1 -47 2 -52 7 -25 9 51 38 53 44 3 l4 -38 1 43 c2 38 0
42 -22 42 -15 0 -26 7 -29 18 -3 9 -5 -10 -5 -43z"/>
<path d="M12613 4375 c0 -33 2 -45 4 -27 2 18 2 45 0 60 -2 15 -4 0 -4 -33z"/>
<path d="M12694 4406 c-3 -13 -4 -37 -2 -52 2 -25 7 -29 32 -29 36 0 53 37 37
78 -14 36 -58 38 -67 3z m51 -31 c0 -33 -3 -40 -20 -40 -15 0 -21 8 -23 28 -5
39 5 59 25 55 14 -2 18 -13 18 -43z"/>
<path d="M12837 4390 c5 -33 3 -40 -11 -40 -19 0 -20 4 -5 32 6 11 8 22 6 25
-5 4 -37 -49 -37 -62 0 -3 11 -5 25 -5 14 0 25 -5 25 -11 0 -8 5 -7 15 1 11 9
13 16 5 24 -5 5 -10 25 -10 43 0 18 -4 33 -9 33 -5 0 -7 -18 -4 -40z"/>
<path d="M12917 4423 l33 -4 -25 -50 c-14 -27 -22 -49 -17 -49 8 0 52 84 52
100 0 6 -17 9 -37 8 -37 -1 -37 -1 -6 -5z"/>
<path d="M13005 4405 c-48 -47 -22 -116 43 -113 l37 1 -33 4 c-62 8 -81 90
-26 115 40 18 74 -4 74 -47 0 -19 -4 -35 -10 -35 -5 0 -10 14 -10 31 0 27 -3
30 -27 27 -24 -3 -28 -8 -28 -33 0 -28 2 -30 40 -30 39 0 40 1 43 37 2 28 -2
40 -20 52 -32 22 -55 20 -83 -9z m60 -50 c0 -28 -29 -25 -33 3 -3 19 0 23 15
20 10 -2 18 -12 18 -23z"/>
<path d="M13970 4412 c0 -13 -8 -18 -27 -17 -25 0 -28 -3 -28 -35 0 -32 3 -35
33 -38 l32 -3 0 55 c0 31 -2 56 -5 56 -3 0 -5 -8 -5 -18z m-5 -52 c0 -29 -32
-41 -41 -16 -9 24 4 48 23 44 12 -2 18 -12 18 -28z"/>
<path d="M11858 4409 c-2 -6 -2 -28 0 -50 3 -28 9 -39 21 -38 10 0 11 2 4 6
-15 5 -18 60 -4 65 5 2 3 8 -4 15 -9 8 -15 9 -17 2z"/>
<path d="M12462 4403 c-8 -8 -9 -13 -2 -13 5 0 10 -16 10 -35 0 -27 4 -35 18
-34 10 0 12 3 5 6 -15 5 -18 60 -4 65 5 2 4 8 -3 14 -8 8 -15 7 -24 -3z"/>
<path d="M11620 4391 c0 -6 7 -8 15 -5 31 12 37 -9 5 -22 -39 -17 -35 -38 9
-42 32 -3 32 -3 29 35 -3 33 -7 38 -30 41 -16 2 -28 -1 -28 -7z m48 -43 c-5
-16 -48 -24 -48 -10 0 11 17 20 38 21 8 1 12 -5 10 -11z"/>
<path d="M11711 4358 c2 -34 3 -37 6 -13 2 17 12 36 21 43 14 11 13 12 -6 12
-19 0 -22 -5 -21 -42z"/>
<path d="M11770 4391 c0 -6 7 -8 15 -5 31 12 37 -9 5 -22 -39 -17 -35 -38 9
-42 32 -3 32 -3 29 35 -3 33 -7 38 -30 41 -16 2 -28 -1 -28 -7z m48 -43 c-5
-16 -48 -24 -48 -10 0 11 17 20 38 21 8 1 12 -5 10 -11z"/>
<path d="M12106 4391 c-3 -4 6 -6 19 -3 25 4 35 -12 13 -21 -10 -4 -10 -6 0
-6 21 -2 13 -31 -9 -31 -15 0 -19 5 -15 15 3 8 1 15 -4 15 -6 0 -10 -9 -10
-20 0 -16 7 -20 30 -20 28 0 30 2 30 40 0 36 -3 40 -24 40 -14 0 -27 -4 -30
-9z"/>
<path d="M12193 4360 c0 -25 2 -35 4 -22 2 12 2 32 0 45 -2 12 -4 2 -4 -23z"/>
<path d="M12281 4338 c1 -35 4 -53 6 -41 3 15 13 23 31 25 24 3 27 7 27 38 0
32 -3 35 -32 38 l-33 3 1 -63z m54 22 c0 -29 -32 -41 -41 -16 -9 24 4 48 23
44 12 -2 18 -12 18 -28z"/>
<path d="M12375 4390 c-4 -7 2 -9 19 -4 16 4 26 2 26 -5 0 -6 -11 -13 -25 -17
-16 -4 -25 -13 -25 -25 0 -15 7 -19 36 -19 35 0 35 1 32 38 -3 32 -7 37 -30
40 -14 2 -29 -2 -33 -8z m46 -45 c0 -13 -41 -19 -41 -7 0 11 20 22 33 18 5 -1
8 -6 8 -11z"/>
<path d="M12520 4385 c-7 -8 -10 -25 -6 -40 5 -20 13 -25 36 -25 17 0 30 4 30
9 0 4 -11 6 -25 3 -18 -3 -25 0 -25 12 0 11 9 16 30 16 28 0 30 2 20 20 -13
24 -42 26 -60 5z m50 -5 c0 -5 -9 -10 -20 -10 -11 0 -20 5 -20 10 0 6 9 10 20
10 11 0 20 -4 20 -10z"/>
<path d="M13141 4357 l2 -42 6 35 c4 22 12 36 24 38 14 3 17 -4 18 -35 l2 -38
6 35 c9 51 38 53 44 3 l4 -38 1 41 2 41 -55 1 -55 0 1 -41z"/>
<path d="M13287 4355 c12 -37 13 -48 3 -60 -10 -13 -10 -14 1 -10 16 6 62 115
49 115 -4 0 -14 -15 -20 -32 l-13 -33 -10 33 c-5 17 -13 32 -18 32 -4 0 -1
-20 8 -45z"/>
<path d="M13410 4385 c-7 -8 -10 -25 -6 -40 5 -20 13 -25 36 -25 17 0 30 4 30
9 0 4 -11 6 -24 4 -25 -5 -40 16 -29 43 4 10 14 14 29 11 13 -2 24 0 24 4 0
15 -47 10 -60 -6z"/>
<path d="M13500 4381 c0 -11 9 -23 20 -26 11 -3 20 -11 20 -17 0 -6 -9 -8 -20
-5 -11 3 -20 1 -20 -5 0 -14 53 -5 58 9 2 7 -8 18 -22 24 -34 16 -34 33 0 25
17 -5 23 -3 19 4 -3 5 -17 10 -31 10 -17 0 -24 -6 -24 -19z"/>
<path d="M13583 4365 c2 -37 4 -40 35 -43 32 -3 32 -3 31 40 l-2 43 -6 -35
c-4 -26 -11 -35 -26 -35 -15 0 -22 9 -27 35 l-6 35 1 -40z"/>
<path d="M13681 4358 l2 -43 6 35 c9 51 38 53 44 3 l4 -38 1 43 c2 40 1 42
-28 42 -29 0 -30 -2 -29 -42z"/>
<path d="M13818 4375 c-8 -19 -8 -28 2 -40 13 -16 60 -21 60 -6 0 4 -11 6 -25
3 -18 -3 -25 0 -25 12 0 11 9 16 31 16 24 0 30 3 25 16 -3 9 -6 18 -6 20 0 2
-11 4 -25 4 -17 0 -29 -8 -37 -25z m52 5 c0 -5 -9 -10 -20 -10 -11 0 -20 5
-20 10 0 6 9 10 20 10 11 0 20 -4 20 -10z"/>
<path d="M14013 4365 c2 -37 4 -40 35 -43 31 -3 32 -2 32 37 0 23 -4 41 -10
41 -5 0 -10 -16 -10 -36 0 -28 -3 -35 -17 -32 -11 2 -20 16 -25 38 l-6 35 1
-40z"/>
<path d="M405 4309 c-18 -8 -17 -9 4 -5 14 3 31 0 38 -5 9 -8 19 -6 35 5 12 9
18 16 12 16 -5 0 -15 -5 -22 -12 -9 -9 -15 -9 -24 0 -14 14 -16 14 -43 1z"/>
<path d="M428 3838 c-13 -13 -17 -18 -8 -12 8 6 24 16 35 22 11 6 15 12 8 12
-7 0 -22 -10 -35 -22z"/>
<path d="M556 3833 l-20 -27 27 20 c14 10 27 22 27 27 0 15 -16 6 -34 -20z"/>
<path d="M1189 3808 c-15 -25 -14 -98 2 -98 5 0 9 13 9 28 0 16 3 32 7 35 10
10 13 57 3 57 -4 0 -14 -10 -21 -22z"/>
<path d="M753 3813 c13 -3 17 -15 17 -54 0 -27 5 -49 10 -49 6 0 10 20 10 45
0 38 4 47 23 55 17 7 11 9 -28 8 -27 0 -42 -2 -32 -5z"/>
<path d="M1441 3763 c1 -32 4 -48 6 -35 3 15 11 22 29 22 13 0 24 5 24 10 0 6
-12 10 -26 10 -37 0 -28 33 11 41 29 6 29 7 -7 8 l-38 1 1 -57z"/>
<path d="M1780 3806 c0 -9 -12 -16 -27 -18 -25 -3 -28 -7 -28 -38 0 -33 2 -35
38 -38 l37 -3 0 55 c0 31 -4 56 -10 56 -5 0 -10 -6 -10 -14z m-6 -69 c-3 -9
-10 -17 -15 -17 -14 0 -22 27 -15 47 6 15 8 15 22 2 8 -9 12 -23 8 -32z"/>
<path d="M467 3793 c-13 -12 -7 -23 18 -35 33 -15 32 -32 -1 -25 -16 3 -22 1
-16 -5 13 -13 44 -7 49 9 3 7 -7 18 -21 24 -33 15 -34 33 -1 27 13 -3 22 -1
19 3 -6 11 -38 12 -47 2z"/>
<path d="M840 3750 c0 -22 5 -40 10 -40 6 0 10 13 10 30 0 17 7 33 18 39 14 9
13 10 -10 11 -26 0 -28 -3 -28 -40z"/>
<path d="M905 3780 c-5 -9 -1 -10 13 -6 11 4 23 3 26 -3 3 -5 -5 -12 -19 -15
-16 -4 -25 -13 -25 -26 0 -16 7 -20 36 -20 35 0 35 1 32 38 -3 32 -7 37 -30
40 -14 2 -29 -2 -33 -8z m37 -52 c-6 -6 -15 -8 -19 -4 -4 4 -1 11 7 16 19 12
27 3 12 -12z"/>
<path d="M990 3748 c0 -46 17 -51 22 -5 2 20 8 32 18 32 10 0 16 -12 18 -32 4
-40 22 -44 22 -5 0 39 -11 51 -48 50 -30 -1 -32 -3 -32 -40z"/>
<path d="M1097 3783 c-15 -14 -6 -33 18 -39 14 -3 25 -11 25 -16 0 -6 -11 -7
-25 -4 -15 4 -25 2 -25 -4 0 -7 14 -10 32 -8 42 4 51 34 14 44 -14 3 -26 10
-26 15 0 5 12 6 26 3 19 -5 25 -4 20 5 -8 12 -48 15 -59 4z"/>
<path d="M1242 3778 c-15 -15 -16 -40 0 -56 15 -15 55 -16 63 -2 4 7 -2 9 -18
5 -14 -4 -28 -2 -31 4 -5 7 4 11 24 11 27 0 31 3 28 23 -3 25 -45 36 -66 15z
m43 -8 c3 -5 -3 -10 -15 -10 -12 0 -18 5 -15 10 3 6 10 10 15 10 5 0 12 -4 15
-10z"/>
<path d="M1330 3750 c0 -22 5 -40 10 -40 6 0 10 13 10 30 0 17 7 33 18 39 14
9 13 10 -10 11 -26 0 -28 -3 -28 -40z"/>
<path d="M1520 3766 c0 -44 10 -56 46 -56 33 0 34 1 34 40 0 48 -17 54 -22 8
-2 -21 -8 -33 -18 -33 -10 0 -16 12 -18 33 -4 37 -22 44 -22 8z"/>
<path d="M1620 3748 c0 -46 17 -51 22 -5 2 20 8 32 18 32 10 0 16 -12 18 -32
4 -40 22 -44 22 -5 0 39 -11 51 -48 50 -30 -1 -32 -3 -32 -40z"/>
<path d="M1827 3783 c-15 -14 -6 -33 18 -39 14 -3 25 -11 25 -16 0 -6 -11 -7
-25 -4 -15 4 -25 2 -25 -4 0 -15 62 -8 68 7 2 7 -8 18 -22 24 -30 14 -35 33
-6 24 11 -4 20 -2 20 4 0 12 -43 15 -53 4z"/>
<path d="M390 3733 c0 -7 10 -22 23 -35 12 -13 17 -17 11 -8 -6 8 -16 24 -22
35 -6 11 -12 15 -12 8z"/>
<path d="M541 3684 c-19 -13 -29 -24 -23 -24 6 0 24 11 39 25 35 31 28 31 -16
-1z"/>
<path d="M6280 3585 c0 -8 7 -15 15 -15 8 0 15 7 15 15 0 8 -7 15 -15 15 -8 0
-15 -7 -15 -15z"/>
<path d="M4450 3505 c0 -78 2 -85 20 -85 16 0 20 7 20 30 0 20 5 30 15 30 8 0
21 -13 30 -30 9 -18 23 -30 35 -30 20 0 20 1 3 26 -13 21 -14 30 -5 45 7 10
12 32 12 49 0 36 -23 50 -84 50 l-46 0 0 -85z m95 30 c0 -14 -8 -21 -27 -23
-24 -3 -28 0 -28 23 0 23 4 26 28 23 19 -2 27 -9 27 -23z"/>
<path d="M5173 3555 c-6 -14 -7 -27 -2 -31 5 -3 9 -23 9 -44 0 -40 20 -70 46
-70 18 0 18 17 -1 36 -8 9 -15 29 -15 45 0 19 5 29 15 29 8 0 15 7 15 15 0 8
-7 15 -15 15 -8 0 -15 7 -15 15 0 24 -24 17 -37 -10z"/>
<path d="M5330 3565 c0 -8 -4 -15 -10 -15 -5 0 -10 -7 -10 -15 0 -8 5 -15 10
-15 6 0 10 -20 10 -45 0 -34 5 -47 20 -55 21 -11 40 -6 40 11 0 5 -7 9 -15 9
-23 0 -21 76 3 85 16 6 16 7 0 19 -10 7 -18 18 -18 25 0 6 -7 11 -15 11 -8 0
-15 -7 -15 -15z"/>
<path d="M6200 3565 c0 -8 -4 -15 -10 -15 -5 0 -10 -7 -10 -15 0 -8 5 -15 10
-15 6 0 10 -20 10 -45 0 -35 4 -47 21 -56 28 -15 54 7 27 22 -23 13 -25 74 -3
83 8 3 15 10 15 16 0 5 -7 10 -15 10 -8 0 -15 7 -15 15 0 8 -7 15 -15 15 -8 0
-15 -7 -15 -15z"/>
<path d="M11420 3505 c0 -51 3 -65 15 -65 11 0 15 11 16 38 l0 37 16 -37 c8
-21 20 -38 27 -38 7 0 19 19 28 43 l17 42 0 -42 c1 -24 6 -43 11 -43 6 0 10
29 10 66 0 57 -2 65 -17 62 -10 -2 -25 -22 -34 -47 l-16 -44 -18 46 c-12 33
-23 47 -36 47 -17 0 -19 -8 -19 -65z"/>
<path d="M11740 3505 l0 -65 45 0 c48 0 64 15 50 48 -5 9 -7 28 -6 41 3 29
-13 41 -56 41 l-33 0 0 -65z m65 25 c0 -8 -8 -16 -17 -18 -13 -2 -18 3 -18 18
0 15 5 20 18 18 9 -2 17 -10 17 -18z m5 -55 c0 -8 -9 -15 -20 -15 -11 0 -20 7
-20 15 0 8 9 15 20 15 11 0 20 -7 20 -15z"/>
<path d="M12070 3505 c0 -51 3 -65 15 -65 8 0 15 7 15 17 0 15 1 15 18 0 29
-26 45 -21 27 7 -13 19 -14 29 -5 45 9 17 8 21 -4 21 -8 0 -20 -8 -25 -17 -8
-15 -10 -11 -11 20 0 26 -4 37 -15 37 -12 0 -15 -14 -15 -65z"/>
<path d="M13630 3535 c0 -20 -5 -25 -25 -25 -14 0 -25 -4 -25 -10 0 -5 11 -10
25 -10 20 0 25 -5 25 -25 0 -14 5 -25 10 -25 6 0 10 11 10 25 0 20 5 25 25 25
14 0 25 5 25 10 0 6 -11 10 -25 10 -20 0 -25 5 -25 25 0 14 -4 25 -10 25 -5 0
-10 -11 -10 -25z"/>
<path d="M13846 3513 c-19 -55 -19 -53 -6 -53 6 0 10 7 10 15 0 8 9 15 20 15
11 0 23 -7 26 -15 4 -8 10 -15 14 -15 5 0 1 23 -8 50 -9 28 -21 50 -28 50 -7
0 -19 -21 -28 -47z m32 -12 c-15 -5 -19 4 -11 24 6 18 7 18 13 -1 4 -10 3 -21
-2 -23z"/>
<path d="M13980 3545 c0 -8 -6 -12 -13 -9 -19 7 -39 -20 -35 -48 2 -18 10 -23
36 -25 32 -1 32 -1 32 48 0 27 -4 49 -10 49 -5 0 -10 -7 -10 -15z m0 -43 c0
-10 -3 -22 -7 -25 -10 -11 -32 13 -26 29 8 20 33 17 33 -4z"/>
<path d="M14070 3545 c0 -8 -6 -12 -12 -10 -23 8 -40 -11 -36 -41 3 -25 8 -29
36 -31 32 -1 32 -1 32 48 0 27 -4 49 -10 49 -5 0 -10 -7 -10 -15z m0 -44 c0
-11 -4 -22 -9 -25 -12 -8 -34 21 -26 34 11 17 35 11 35 -9z"/>
<path d="M14140 3511 c0 -49 1 -51 29 -51 32 0 57 23 45 42 -5 7 -8 22 -9 33
0 15 -8 21 -32 23 l-33 3 0 -50z m53 24 c1 -5 -6 -11 -15 -13 -11 -2 -18 3
-18 13 0 17 30 18 33 0z m3 -36 c7 -12 -15 -31 -28 -23 -4 3 -8 12 -8 20 0 17
26 19 36 3z"/>
<path d="M14400 3510 c0 -27 5 -50 10 -50 6 0 10 7 10 17 0 14 2 14 20 -2 21
-19 28 -7 8 13 -9 9 -9 15 0 24 20 20 13 32 -8 13 -20 -18 -20 -17 -20 8 0 15
-4 27 -10 27 -5 0 -10 -22 -10 -50z"/>
<path d="M4620 3530 c-20 -20 -26 -65 -12 -86 17 -26 53 -36 83 -24 40 17 37
34 -5 26 -24 -5 -37 -2 -46 9 -11 13 -6 15 34 15 42 0 46 2 46 23 0 51 -63 74
-100 37z m68 -27 c2 -8 -6 -13 -22 -13 -17 0 -26 5 -26 16 0 19 41 16 48 -3z"/>
<path d="M4766 3534 c-37 -37 -24 -104 22 -118 26 -9 72 10 72 29 0 18 -21 20
-37 4 -21 -21 -45 -2 -41 33 3 35 33 51 49 27 7 -11 10 -12 21 -1 11 11 9 16
-6 28 -26 18 -61 18 -80 -2z"/>
<path d="M4908 3540 c-9 -6 -19 -24 -23 -40 -13 -58 45 -107 94 -80 33 17 25
31 -15 28 -23 -2 -39 2 -41 10 -3 8 7 12 35 12 48 0 53 5 41 38 -16 41 -52 54
-91 32z m60 -37 c2 -8 -6 -13 -22 -13 -17 0 -26 5 -26 16 0 19 41 16 48 -3z"/>
<path d="M5030 3485 c0 -51 3 -65 15 -65 10 0 15 10 15 34 0 47 9 66 31 66 16
0 19 -8 19 -50 0 -43 3 -50 20 -50 17 0 20 7 20 49 0 52 -17 81 -49 81 -9 0
-22 -5 -29 -12 -9 -9 -12 -9 -12 0 0 7 -7 12 -15 12 -12 0 -15 -14 -15 -65z"/>
<path d="M5410 3484 c0 -50 3 -64 15 -64 11 0 15 12 15 46 0 37 4 47 20 51 34
9 23 31 -15 31 l-35 0 0 -64z"/>
<path d="M5518 3539 c-30 -17 -21 -30 17 -23 42 8 49 -12 8 -22 -54 -13 -67
-39 -37 -69 11 -11 25 -14 38 -10 12 4 31 6 44 6 20 -1 22 4 22 48 0 71 -40
101 -92 70z m56 -84 c-4 -8 -15 -15 -25 -15 -10 0 -19 7 -19 15 0 9 9 15 25
15 18 0 23 -4 19 -15z"/>
<path d="M5640 3484 c0 -49 3 -64 14 -64 11 0 16 14 18 48 3 39 6 47 23 47 17
0 20 -8 23 -47 2 -34 7 -48 18 -48 18 0 20 103 2 118 -7 5 -32 10 -55 9 l-43
0 0 -63z"/>
<path d="M5796 3534 c-26 -26 -15 -51 29 -62 16 -5 30 -13 33 -20 4 -14 -34
-16 -43 -2 -9 14 -35 0 -29 -15 8 -19 59 -28 84 -15 34 18 23 62 -17 72 -45
12 -43 32 2 24 38 -8 48 7 16 24 -28 14 -57 12 -75 -6z"/>
<path d="M5932 3538 c-21 -21 -13 -29 23 -22 42 8 49 -12 8 -22 -37 -9 -53
-23 -53 -45 0 -26 31 -39 74 -32 l36 6 0 51 c0 58 -12 76 -50 76 -14 0 -31 -5
-38 -12z m56 -80 c-5 -15 -48 -24 -48 -10 0 14 12 22 33 22 10 0 17 -5 15 -12z"/>
<path d="M6072 3534 c-44 -31 -17 -124 37 -124 23 0 69 36 58 46 -4 4 -18 1
-32 -6 -22 -12 -28 -12 -42 2 -20 21 -10 68 15 68 10 0 23 -5 29 -11 20 -20
36 1 17 22 -21 23 -52 24 -82 3z"/>
<path d="M6280 3485 c0 -51 3 -65 15 -65 12 0 15 14 15 65 0 51 -3 65 -15 65
-12 0 -15 -14 -15 -65z"/>
<path d="M6357 3532 c-25 -28 -22 -87 5 -106 30 -21 54 -20 78 4 26 26 26 81
2 103 -24 22 -65 21 -85 -1z m69 -37 c7 -27 -10 -55 -32 -55 -16 0 -29 43 -20
65 9 25 45 18 52 -10z"/>
<path d="M6490 3484 c0 -49 3 -64 14 -64 11 0 16 14 18 48 3 39 6 47 23 47 17
0 20 -8 23 -47 2 -34 7 -48 18 -48 18 0 20 103 2 118 -7 5 -32 10 -55 9 l-43
0 0 -63z"/>
<path d="M6646 3534 c-26 -26 -15 -51 29 -62 16 -5 30 -13 33 -20 4 -14 -34
-16 -43 -2 -9 14 -35 0 -29 -15 8 -19 59 -28 84 -15 34 18 23 62 -17 72 -45
12 -43 32 2 24 38 -8 48 7 16 24 -28 14 -57 12 -75 -6z"/>
<path d="M10168 3500 c9 -27 21 -50 28 -50 7 0 19 21 28 47 19 54 18 53 8 53
-5 0 -15 -19 -22 -42 l-13 -43 -14 43 c-21 60 -35 53 -15 -8z"/>
<path d="M10613 3500 c0 -30 2 -43 4 -27 2 15 2 39 0 55 -2 15 -4 2 -4 -28z"/>
<path d="M10640 3500 c0 -27 5 -50 10 -50 6 0 10 23 10 50 0 28 -4 50 -10 50
-5 0 -10 -22 -10 -50z"/>
<path d="M11874 3524 c-18 -15 -18 -15 9 -9 21 4 28 2 25 -7 -3 -7 -14 -14
-25 -16 -29 -4 -38 -33 -16 -49 9 -8 24 -11 31 -8 8 3 20 5 28 5 23 0 19 77
-5 90 -25 13 -24 13 -47 -6z m33 -61 c-9 -9 -19 -14 -23 -11 -10 10 6 28 24
28 15 0 15 -1 -1 -17z"/>
<path d="M11988 3532 c-26 -3 -28 -7 -28 -48 0 -32 4 -44 15 -44 11 0 15 11
15 36 0 28 3 35 18 32 11 -2 18 -14 20 -36 5 -46 22 -40 22 8 0 44 -17 58 -62
52z"/>
<path d="M12200 3532 c-37 -13 -33 -47 7 -57 19 -4 23 -9 15 -17 -8 -8 -15 -8
-26 1 -9 8 -16 8 -20 2 -9 -14 29 -32 51 -24 39 14 38 47 -3 57 -13 4 -24 11
-24 16 0 6 11 8 25 4 14 -3 25 -4 25 0 0 10 -35 23 -50 18z"/>
<path d="M14245 3530 c-4 -7 0 -10 11 -8 14 2 18 -3 19 -21 0 -13 -6 -26 -14
-29 -10 -3 -12 0 -8 12 4 10 1 16 -9 16 -29 0 -11 -35 19 -36 26 -1 28 1 25
35 -3 36 -28 55 -43 31z"/>
<path d="M14322 3496 c1 -37 2 -38 5 -8 6 42 33 44 33 2 0 -16 5 -30 10 -30
11 0 14 70 3 71 -56 6 -53 8 -51 -35z"/>
<path d="M10263 3490 c0 -25 2 -35 4 -22 2 12 2 32 0 45 -2 12 -4 2 -4 -23z"/>
<path d="M10302 3518 c-25 -25 -6 -68 29 -68 10 0 21 5 25 11 4 7 -2 9 -16 7
-13 -2 -25 3 -27 10 -3 7 5 12 21 12 14 0 26 4 26 8 0 12 -22 32 -35 32 -6 0
-16 -5 -23 -12z m35 -14 c-3 -3 -12 -4 -19 -1 -8 3 -5 6 6 6 11 1 17 -2 13 -5z"/>
<path d="M10370 3522 c0 -18 22 -72 30 -72 4 0 11 12 15 28 l8 27 6 -24 c10
-38 28 -36 35 5 9 43 0 59 -10 19 l-7 -28 -13 29 c-12 28 -13 28 -19 7 -8 -26
-25 -31 -25 -9 0 8 -4 18 -10 21 -5 3 -10 2 -10 -3z"/>
<path d="M10535 3520 c-3 -6 4 -10 17 -10 22 -1 22 -2 -5 -16 -35 -19 -30 -39
11 -41 29 -1 32 2 32 26 0 40 -38 69 -55 41z m27 -52 c-6 -6 -15 -8 -19 -4 -4
4 -1 11 7 16 19 12 27 3 12 -12z"/>
<path d="M11600 3480 c17 -44 18 -51 5 -56 -8 -4 -15 -10 -15 -15 0 -14 37
-11 43 4 46 115 47 117 32 117 -8 0 -17 -11 -21 -25 -3 -14 -10 -25 -14 -25
-4 0 -11 11 -14 25 -4 14 -13 25 -21 25 -12 0 -11 -8 5 -50z"/>
<path d="M473 3243 c15 -2 39 -2 55 0 15 2 2 4 -28 4 -30 0 -43 -2 -27 -4z"/>
<path d="M601 3238 c-1 -9 -9 -19 -18 -21 -17 -4 -17 -5 0 -6 9 0 17 -6 17
-11 0 -6 6 -5 14 2 8 7 10 15 6 18 -4 3 -10 12 -13 20 -4 12 -6 12 -6 -2z"/>
<path d="M790 3201 c-14 -26 -13 -64 2 -79 17 -17 63 -15 78 3 15 18 7 19 -21
4 -26 -13 -49 4 -49 37 0 32 30 47 53 27 21 -20 35 -10 17 12 -18 22 -67 19
-80 -4z"/>
<path d="M1480 3165 l0 -55 34 0 c26 0 36 5 41 20 10 33 -4 60 -31 60 -15 0
-24 6 -24 15 0 8 -4 15 -10 15 -5 0 -10 -25 -10 -55z m55 -15 c0 -27 -22 -39
-31 -16 -8 22 3 49 19 43 6 -2 12 -14 12 -27z"/>
<path d="M1770 3165 c0 -30 5 -55 10 -55 6 0 10 7 10 17 0 15 1 15 18 0 27
-24 37 -21 19 7 -14 21 -14 25 1 40 12 12 13 16 3 16 -8 0 -20 -8 -27 -17 -12
-16 -13 -15 -14 15 0 17 -4 32 -10 32 -5 0 -10 -25 -10 -55z"/>
<path d="M1378 3198 c-2 -7 -2 -29 2 -48 3 -24 11 -36 25 -38 16 -3 18 -1 8 9
-16 16 -17 59 -2 59 6 0 4 7 -5 15 -18 18 -23 19 -28 3z"/>
<path d="M458 3193 c17 -2 47 -2 65 0 17 2 3 4 -33 4 -36 0 -50 -2 -32 -4z"/>
<path d="M904 3176 c-12 -31 0 -61 27 -64 36 -4 55 21 41 53 -13 28 -59 35
-68 11z m50 -11 c7 -18 -2 -45 -15 -45 -13 0 -22 27 -15 45 3 8 10 15 15 15 5
0 11 -7 15 -15z"/>
<path d="M1000 3151 c0 -49 17 -55 22 -8 2 17 8 32 13 32 6 0 11 -15 13 -32 2
-18 8 -33 13 -33 6 0 9 17 7 38 -3 34 -6 37 -35 40 -32 3 -33 2 -33 -37z"/>
<path d="M1101 3148 c1 -28 3 -34 6 -18 10 55 43 62 43 9 0 -16 5 -29 11 -29
6 0 9 16 7 38 -3 34 -6 37 -35 40 -33 3 -33 3 -32 -40z"/>
<path d="M1194 3165 c-3 -14 -4 -32 0 -40 6 -18 61 -20 72 -4 5 8 -1 10 -19 5
-14 -3 -29 -2 -32 4 -4 6 6 10 24 10 32 0 41 16 19 38 -22 22 -57 14 -64 -13z
m51 5 c3 -5 -3 -10 -15 -10 -12 0 -18 5 -15 10 3 6 10 10 15 10 5 0 12 -4 15
-10z"/>
<path d="M1290 3170 c-15 -28 4 -60 35 -60 13 0 27 5 30 10 4 7 -2 9 -18 5
-17 -5 -26 -2 -31 11 -9 23 10 43 36 36 14 -3 19 -1 14 6 -12 19 -54 14 -66
-8z"/>
<path d="M1585 3180 c-5 -9 -1 -10 13 -6 11 4 23 3 26 -3 3 -5 -5 -12 -19 -15
-16 -4 -25 -13 -25 -26 0 -16 7 -20 36 -20 35 0 35 1 32 38 -3 32 -7 37 -30
40 -14 2 -29 -2 -33 -8z m38 -51 c-6 -6 -17 -8 -24 -3 -9 5 -8 9 7 14 23 9 31
3 17 -11z"/>
<path d="M1670 3148 c0 -21 5 -38 10 -38 6 0 10 13 10 29 0 17 5 33 11 37 14
8 29 -14 29 -43 0 -13 5 -23 10 -23 11 0 13 24 4 57 -5 18 -13 22 -40 21 -33
-1 -34 -3 -34 -40z"/>
<path d="M523 3113 c9 -2 23 -2 30 0 6 3 -1 5 -18 5 -16 0 -22 -2 -12 -5z"/>
<path d="M488 3073 c23 -2 61 -2 85 0 23 2 4 4 -43 4 -47 0 -66 -2 -42 -4z"/>
<path d="M11610 3047 c-47 -15 -103 -74 -118 -123 -17 -59 -17 -1549 0 -1608
16 -52 72 -108 124 -124 48 -14 1260 -17 1282 -3 8 4 14 12 14 16 0 4 -6 12
-14 16 -7 5 -8 9 -2 9 6 0 11 7 11 15 0 8 -5 15 -11 15 -6 0 -5 4 2 9 8 4 14
12 14 16 0 4 -6 12 -14 16 -7 5 -8 9 -2 9 6 0 11 7 11 15 0 8 -5 15 -11 15 -6
0 -5 4 2 9 8 4 14 12 14 16 0 4 -6 12 -14 16 -8 6 -9 9 -1 9 8 0 8 7 0 29 -8
22 -8 36 1 55 9 20 9 26 -1 26 -9 0 -8 3 1 9 8 4 14 12 14 16 0 4 -6 12 -14
16 -7 5 -8 9 -2 9 14 0 14 30 0 30 -6 0 -5 4 2 9 8 4 14 12 14 16 0 4 -6 12
-14 16 -7 5 -8 9 -2 9 14 0 14 30 0 30 -6 0 -5 4 2 9 8 4 14 12 14 16 0 4 -6
12 -14 16 -7 5 -8 9 -2 9 6 0 11 7 11 15 0 8 -5 15 -11 15 -6 0 -5 4 2 9 8 4
14 12 14 16 0 4 -6 12 -14 16 -7 5 -8 9 -2 9 6 0 11 7 11 15 0 8 -5 15 -11 15
-6 0 -5 4 2 9 8 4 14 12 14 16 0 4 -6 12 -14 16 -7 5 -8 9 -2 9 6 0 11 7 11
15 0 8 -5 15 -11 15 -6 0 -5 4 2 9 8 4 14 12 14 16 0 4 -6 12 -14 16 -7 5 -8
9 -2 9 6 0 11 7 11 15 0 8 -5 15 -11 15 -6 0 -5 4 2 9 8 4 14 12 14 16 0 4 -6
12 -14 16 -7 5 -8 9 -2 9 14 0 14 30 0 30 -6 0 -5 4 2 9 8 4 14 12 14 16 0 4
-6 12 -14 16 -7 5 -8 9 -2 9 14 0 14 30 0 30 -6 0 -5 4 2 9 8 4 14 12 14 16 0
4 -6 12 -14 16 -7 5 -8 9 -2 9 6 0 11 7 11 15 0 8 -5 15 -11 15 -6 0 -5 4 2 9
8 4 14 12 14 16 0 4 -6 12 -14 16 -7 5 -8 9 -2 9 14 0 14 30 0 30 -6 0 -5 4 2
9 8 4 14 12 14 16 0 4 -6 12 -14 16 -7 5 -8 9 -2 9 14 0 14 30 0 30 -6 0 -5 4
2 9 8 4 14 12 14 16 0 4 -6 12 -14 16 -7 5 -8 9 -2 9 6 0 11 7 11 15 0 8 -5
15 -11 15 -6 0 -5 4 2 9 8 4 14 12 14 16 0 4 -6 12 -14 16 -7 5 -8 9 -2 9 6 0
11 7 11 15 0 8 -5 15 -11 15 -6 0 -5 4 2 9 8 4 14 12 14 16 0 4 -6 12 -14 16
-7 5 -8 9 -2 9 6 0 11 7 11 15 0 8 -5 15 -11 15 -6 0 -5 4 2 9 8 4 14 12 14
16 0 4 -6 12 -14 16 -7 5 -8 9 -2 9 6 0 11 7 11 15 0 8 -5 15 -11 15 -6 0 -5
4 2 9 8 4 14 12 14 16 0 4 -6 12 -14 16 -7 5 -8 9 -2 9 6 0 11 7 11 15 0 8 -5
15 -11 15 -6 0 -5 4 2 9 8 4 14 12 14 16 0 4 -6 12 -14 16 -7 5 -8 9 -2 9 6 0
11 7 11 15 0 8 -5 15 -11 15 -6 0 -5 4 2 9 8 4 14 12 14 16 0 4 -6 12 -14 16
-7 5 -8 9 -2 9 14 0 14 30 0 30 -6 0 -5 4 2 9 8 4 14 12 14 16 0 4 -6 12 -14
16 -7 5 -8 9 -2 9 6 0 11 7 11 15 0 8 -5 15 -11 15 -7 0 -7 3 -1 8 6 4 11 13
12 20 4 16 -1244 16 -1297 -1z m151 -247 c36 -20 18 -80 -23 -80 -11 0 -18 -7
-18 -20 0 -11 -7 -20 -15 -20 -12 0 -15 14 -15 65 0 63 1 65 26 65 14 0 34 -5
45 -10z m59 -55 c0 -51 -3 -65 -15 -65 -12 0 -15 14 -15 65 0 51 3 65 15 65
12 0 15 -14 15 -65z m130 0 c0 -52 -3 -65 -15 -65 -13 0 -15 12 -14 65 1 47 6
65 15 65 10 0 14 -17 14 -65z m100 0 l0 -65 -33 0 c-40 0 -57 15 -57 50 0 30
17 50 42 50 10 0 18 7 18 15 0 8 7 15 15 15 12 0 15 -14 15 -65z m136 51 c15
-12 17 -17 7 -27 -10 -10 -16 -10 -25 -1 -15 15 -28 16 -28 2 0 -5 7 -10 15
-10 8 0 24 -9 34 -19 20 -20 20 -20 23 7 3 30 39 42 64 22 10 -9 14 -9 14 -1
0 20 30 11 40 -11 l9 -23 7 23 c4 13 14 22 25 22 11 0 19 7 19 15 0 8 7 15 15
15 12 0 15 -14 15 -65 0 -50 -3 -65 -14 -65 -10 0 -16 14 -18 43 l-3 42 -14
-42 c-18 -55 -43 -57 -64 -5 l-15 37 -1 -37 c-1 -36 -3 -38 -34 -38 -18 0 -38
5 -45 12 -9 9 -15 9 -24 0 -26 -26 -88 -8 -88 25 0 16 27 17 32 2 2 -6 13 -9
23 -7 17 4 16 7 -10 17 -46 19 -55 40 -29 65 19 20 44 20 70 2z m-288 -28 c7
-7 12 -29 12 -51 0 -38 0 -38 -37 -35 -37 3 -38 4 -39 43 0 22 5 43 10 47 16
11 41 9 54 -4z m620 -40 c2 -38 0 -48 -12 -48 -12 0 -16 10 -16 36 0 45 -24
42 -28 -4 -2 -20 -9 -32 -18 -32 -10 0 -14 13 -14 51 l0 50 43 -3 42 -3 3 -47z
m100 -10 l-3 -63 -34 -3 c-38 -4 -65 13 -42 27 9 6 10 11 2 15 -15 9 -14 59 1
74 7 7 27 12 45 12 l34 0 -3 -62z m-867 -165 c8 -9 14 -23 15 -32 1 -9 2 -27
3 -40 l1 -24 25 23 c14 13 25 33 25 44 0 19 -1 19 -13 1 -10 -13 -16 -15 -21
-6 -12 20 2 41 27 41 48 0 63 -47 25 -75 l-23 -17 23 7 c18 5 22 2 22 -15 0
-19 -5 -21 -54 -19 -30 1 -61 -3 -68 -9 -10 -8 -19 -6 -37 7 -26 20 -20 47 8
36 10 -4 8 1 -6 15 -13 11 -23 27 -23 34 0 12 36 44 51 45 4 1 13 -6 20 -16z
m189 -43 c0 -27 5 -50 10 -50 6 0 10 -4 10 -10 0 -5 -18 -10 -40 -10 -22 0
-40 5 -40 10 0 6 5 10 10 10 18 0 11 57 -7 65 -16 6 -15 8 7 20 43 24 50 19
50 -35z m110 31 c12 -24 13 -71 1 -90 -5 -7 -21 -13 -36 -13 -15 0 -31 6 -36
13 -13 20 -11 83 3 97 18 18 56 14 68 -7z m145 -8 l11 -21 9 21 c13 28 55 35
72 11 22 -30 16 -81 -11 -99 -29 -19 -66 -6 -67 23 0 13 -3 12 -11 -5 -14 -29
-64 -35 -80 -10 -12 19 -9 82 4 95 19 19 61 10 73 -15z m-97 -80 c-4 -22 -22
-20 -26 1 -2 10 3 16 13 16 10 0 15 -7 13 -17z m-167 -696 c1 -25 3 -27 6 -9
4 18 10 23 31 20 22 -2 28 -9 30 -34 2 -24 -1 -33 -16 -36 -11 -3 -26 -2 -34
3 -12 6 -17 3 -21 -11 -3 -11 -13 -20 -22 -20 -12 0 -15 5 -10 21 6 18 4 19
-12 11 -12 -7 -25 -7 -36 -1 -11 6 -23 6 -35 0 -24 -13 -52 4 -53 32 0 12 -3
16 -6 10 -2 -7 -13 -13 -24 -13 -10 0 -19 -7 -19 -15 0 -8 -7 -15 -15 -15 -11
0 -15 12 -15 45 0 43 1 45 30 45 18 0 33 -6 36 -15 4 -10 14 -13 30 -9 13 4
31 1 38 -5 10 -9 16 -9 21 -1 4 6 21 10 38 8 20 -2 32 2 33 10 2 22 4 23 14
17 6 -3 11 -21 11 -38z m247 10 c4 -18 -40 -67 -59 -67 -5 0 -9 21 -9 46 0 45
0 45 32 42 22 -2 34 -9 36 -21z m105 9 c3 -8 3 -23 0 -34 -2 -11 -1 -22 4 -25
5 -3 9 3 9 15 -1 24 25 44 48 35 19 -8 22 -63 4 -69 -11 -4 -38 -3 -80 1 -5 1
-9 13 -9 29 l-2 27 -4 -26 c-3 -17 -12 -29 -26 -33 -30 -7 -47 13 -40 47 5 25
9 28 35 25 19 -3 32 0 35 9 7 17 19 17 26 -1z m107 -31 c0 -25 -4 -45 -10 -45
-5 0 -10 20 -10 45 0 25 5 45 10 45 6 0 10 -20 10 -45z m-322 -12 c2 -19 -1
-33 -7 -33 -6 0 -11 11 -11 25 0 14 -4 25 -10 25 -5 0 -10 -11 -10 -25 0 -14
-4 -25 -10 -25 -5 0 -10 16 -10 36 0 33 2 35 28 32 22 -2 28 -8 30 -35z m-310
-291 c-2 -23 -8 -27 -33 -27 -24 0 -31 5 -33 24 -5 32 23 54 50 40 13 -7 18
-19 16 -37z m102 18 c13 -25 -10 -53 -41 -48 -30 4 -39 46 -14 64 20 15 42 8
55 -16z m95 14 c19 -20 16 -43 -7 -58 -38 -23 -78 35 -42 61 23 17 29 16 49
-3z m100 0 c19 -20 16 -43 -7 -58 -38 -23 -78 35 -42 61 23 17 29 16 49 -3z
m149 -3 c25 -28 5 -63 -32 -59 -34 4 -44 45 -16 65 23 17 28 17 48 -6z m100 3
c29 -29 12 -64 -31 -64 -31 0 -44 47 -18 67 24 17 30 16 49 -3z m100 3 c36
-26 -4 -84 -41 -61 -25 16 -28 45 -7 61 10 7 21 13 24 13 3 0 14 -6 24 -13z
m101 0 c26 -20 13 -67 -18 -67 -43 0 -60 35 -31 64 19 19 25 20 49 3z m146 3
c37 -20 17 -70 -28 -70 -31 0 -44 47 -18 67 22 16 21 16 46 3z m103 -3 c11 -8
17 -23 14 -38 -2 -19 -10 -25 -35 -27 -28 -3 -33 0 -39 24 -5 20 -2 31 11 41
23 16 27 16 49 0z m106 -1 c6 -8 10 -25 8 -38 -2 -18 -10 -24 -35 -26 -28 -3
-33 0 -39 24 -11 42 39 72 66 40z"/>
<path d="M11720 2766 c0 -9 7 -16 16 -16 17 0 14 22 -4 28 -7 2 -12 -3 -12
-12z"/>
<path d="M11997 2743 c-13 -12 -7 -33 8 -33 8 0 15 9 15 20 0 20 -11 26 -23
13z"/>
<path d="M12560 2730 c0 -13 5 -20 13 -17 6 2 12 10 12 17 0 7 -6 15 -12 18
-8 2 -13 -5 -13 -18z"/>
<path d="M12006 2518 c-5 -16 -5 -36 0 -45 7 -16 8 -15 11 5 3 12 3 32 0 45
-3 21 -4 20 -11 -5z"/>
<path d="M12151 2500 c0 -37 2 -41 9 -22 6 13 6 31 0 45 -7 18 -9 14 -9 -23z"/>
<path d="M12247 2533 c-11 -10 -8 -73 3 -73 6 0 10 18 10 40 0 41 -2 45 -13
33z"/>
<path d="M11710 1760 c0 -5 5 -10 10 -10 6 0 10 5 10 10 0 6 -4 10 -10 10 -5
0 -10 -4 -10 -10z"/>
<path d="M11786 1741 c-4 -7 -5 -15 -2 -18 9 -9 19 4 14 18 -4 11 -6 11 -12 0z"/>
<path d="M11860 1734 c0 -8 5 -12 10 -9 6 4 8 11 5 16 -9 14 -15 11 -15 -7z"/>
<path d="M12140 1760 c0 -5 5 -10 11 -10 5 0 7 5 4 10 -3 6 -8 10 -11 10 -2 0
-4 -4 -4 -10z"/>
<path d="M13760 2797 l0 -264 53 -7 c28 -3 117 -6 198 -6 l145 0 -1 45 c0 24
-6 50 -12 56 -9 9 -9 18 -1 32 15 30 17 128 2 165 -11 26 -11 34 -1 38 9 3 12
33 12 102 l0 97 -198 3 -197 2 0 -263z m368 18 c26 -56 8 -175 -26 -175 -11 0
-13 7 -7 33 5 17 8 48 8 67 0 19 -3 50 -8 68 -6 25 -4 32 7 32 8 0 20 -11 26
-25z m-47 -16 c13 -26 7 -115 -10 -132 -20 -20 -33 5 -20 41 8 23 8 41 0 63
-17 48 7 70 30 28z m-41 -59 c0 -21 -7 -43 -15 -50 -8 -7 -16 -11 -16 -9 -4
11 -5 105 -1 112 9 19 32 -18 32 -53z"/>
<path d="M7241 2858 c0 -36 3 -47 8 -33 4 11 19 22 32 25 17 4 24 13 24 30 0
21 -6 26 -32 28 l-33 3 1 -53z m54 22 c0 -8 -10 -16 -22 -18 -18 -3 -23 2 -23
18 0 16 5 21 23 18 12 -2 22 -10 22 -18z"/>
<path d="M7333 2860 c0 -30 2 -43 4 -27 2 15 2 39 0 55 -2 15 -4 2 -4 -28z"/>
<path d="M7529 2893 c-1 -10 -2 -29 -2 -42 -1 -13 -8 -26 -14 -28 -20 -7 -28
27 -13 51 12 19 12 20 -4 7 -10 -8 -16 -25 -14 -40 2 -21 9 -26 31 -27 26 -1
27 1 27 47 0 46 -9 70 -11 32z"/>
<path d="M7617 2903 c-14 -14 -6 -34 18 -43 14 -5 25 -14 25 -20 0 -15 -33
-26 -38 -12 -2 7 -8 12 -14 12 -6 0 -5 -6 2 -15 19 -23 54 -15 58 12 3 17 -3
24 -22 29 -35 8 -35 38 -1 32 13 -3 22 -1 19 3 -6 11 -38 12 -47 2z"/>
<path d="M7397 2877 c20 -32 8 -67 -18 -51 -8 4 -7 9 2 16 11 8 11 9 -1 5 -26
-7 -17 -32 13 -33 24 -1 27 2 27 31 0 21 -6 35 -16 39 -10 4 -13 2 -7 -7z"/>
<path d="M7727 2877 c20 -32 8 -67 -18 -51 -8 4 -7 9 2 16 11 8 11 9 -1 5 -26
-7 -17 -32 13 -33 24 -1 27 2 27 31 0 21 -6 35 -16 39 -10 4 -13 2 -7 -7z"/>
<path d="M7928 2878 c5 -7 12 -26 15 -43 4 -28 4 -28 6 6 1 26 -4 39 -15 43
-13 5 -14 3 -6 -6z"/>
<path d="M7982 2878 c-17 -17 -15 -43 5 -59 15 -13 15 -12 3 8 -11 18 -11 24
-1 37 18 21 34 9 28 -20 -2 -13 0 -24 4 -24 5 0 6 -7 2 -16 -4 -10 -13 -14
-26 -10 -15 4 -17 2 -8 -7 21 -21 46 6 49 52 2 22 -1 41 -7 41 -5 0 -15 2 -23
5 -7 3 -19 0 -26 -7z"/>
<path d="M7453 2845 c0 -22 2 -30 4 -17 2 12 2 30 0 40 -3 9 -5 -1 -4 -23z"/>
<path d="M7775 2863 c4 -10 10 -26 12 -35 8 -27 20 -22 32 13 15 43 12 51 -4
14 l-13 -30 -11 28 c-6 15 -13 27 -17 27 -3 0 -3 -8 1 -17z"/>
<path d="M7853 2845 c0 -22 2 -30 4 -17 2 12 2 30 0 40 -3 9 -5 -1 -4 -23z"/>
<path d="M7890 2845 c0 -19 2 -35 4 -35 2 0 6 16 8 35 2 19 0 35 -4 35 -4 0
-8 -16 -8 -35z"/>
<path d="M7070 2670 c0 -7 197 -10 570 -10 373 0 570 3 570 10 0 7 -197 10
-570 10 -373 0 -570 -3 -570 -10z"/>
<path d="M13763 2507 c2 -6 43 -27 91 -45 131 -51 127 -81 -12 -110 -78 -16
-82 -18 -82 -43 0 -26 2 -26 48 -22 26 3 112 16 191 29 80 13 147 24 151 24 3
0 6 19 6 43 -1 48 -11 54 -89 56 -61 1 -171 26 -248 56 -35 14 -59 19 -56 12z"/>
<path d="M13885 2488 c68 -23 265 -38 265 -20 0 6 -30 11 -78 11 -43 0 -111 7
-151 16 -96 20 -109 18 -36 -7z"/>
<path d="M13760 2414 l0 -66 38 6 c55 10 132 36 132 46 0 4 -6 12 -12 18 -14
11 -136 62 -150 62 -4 0 -8 -30 -8 -66z"/>
<path d="M13975 2294 c-60 -8 -134 -17 -162 -20 -44 -4 -53 -9 -53 -25 0 -24
7 -24 226 -3 167 17 170 18 170 41 0 27 -12 28 -181 7z"/>
<path d="M13843 2223 c-81 -4 -83 -4 -83 -29 0 -26 1 -26 58 -20 31 3 117 11
190 17 86 8 136 17 143 26 12 13 -77 15 -308 6z"/>
<path d="M13995 2170 c-66 -4 -146 -8 -177 -9 -52 -1 -58 -3 -58 -22 0 -21 3
-22 68 -16 37 4 123 9 192 13 115 6 147 15 134 36 -3 4 -13 7 -22 6 -9 -1 -71
-5 -137 -8z"/>
<path d="M13853 2113 c-85 -3 -93 -6 -93 -23 0 -24 19 -25 225 -10 151 12 178
16 170 31 -6 9 -93 9 -302 2z"/>
<path d="M5400 2100 c0 -5 5 -10 10 -10 6 0 10 5 10 10 0 6 -4 10 -10 10 -5 0
-10 -4 -10 -10z"/>
<path d="M5875 2100 c-3 -5 -1 -10 4 -10 6 0 11 5 11 10 0 6 -2 10 -4 10 -3 0
-8 -4 -11 -10z"/>
<path d="M5160 2046 c0 -31 5 -56 10 -56 6 0 10 6 10 13 0 7 14 18 31 24 25
10 30 16 27 40 -3 24 -8 28 -40 31 l-38 3 0 -55z m58 17 c-5 -26 -38 -29 -38
-4 0 15 6 21 21 21 14 0 19 -5 17 -17z"/>
<path d="M5260 2045 c0 -30 5 -55 10 -55 6 0 10 25 10 55 0 30 -4 55 -10 55
-5 0 -10 -25 -10 -55z"/>
<path d="M5500 2086 c0 -9 -12 -16 -27 -18 -25 -3 -28 -7 -28 -38 0 -33 2 -35
38 -38 l37 -3 0 55 c0 31 -4 56 -10 56 -5 0 -10 -6 -10 -14z m0 -55 c0 -11 -5
-23 -11 -27 -15 -9 -33 12 -26 30 9 23 37 20 37 -3z"/>
<path d="M5587 2093 c-17 -17 -5 -45 23 -55 17 -5 29 -15 27 -22 -5 -12 -11
-12 -41 0 -14 5 -17 3 -14 -7 7 -21 74 -24 82 -4 8 22 0 34 -30 45 -37 14 -30
33 8 24 29 -6 31 -5 19 10 -13 16 -62 22 -74 9z"/>
<path d="M5310 2059 c0 -6 9 -8 20 -4 27 9 25 -8 -2 -20 -37 -16 -29 -40 15
-43 34 -3 37 -1 37 22 0 42 -10 56 -41 56 -16 0 -29 -5 -29 -11z m40 -49 c0
-5 -4 -10 -9 -10 -6 0 -13 5 -16 10 -3 6 1 10 9 10 9 0 16 -4 16 -10z"/>
<path d="M5400 2030 c0 -22 5 -40 10 -40 6 0 10 18 10 40 0 22 -4 40 -10 40
-5 0 -10 -18 -10 -40z"/>
<path d="M5690 2059 c0 -6 9 -8 20 -4 27 9 25 -8 -2 -20 -37 -16 -29 -40 15
-43 34 -3 37 -1 37 22 0 42 -10 56 -41 56 -16 0 -29 -5 -29 -11z m40 -49 c0
-5 -4 -10 -9 -10 -6 0 -13 5 -16 10 -3 6 1 10 9 10 9 0 16 -4 16 -10z"/>
<path d="M5770 2066 c0 -18 33 -76 44 -76 7 0 20 18 29 40 11 30 12 40 3 40
-7 0 -17 -12 -23 -27 l-10 -28 -11 28 c-6 15 -16 27 -22 27 -5 0 -10 -2 -10
-4z"/>
<path d="M5870 2030 c0 -22 5 -40 10 -40 6 0 10 18 10 40 0 22 -4 40 -10 40
-5 0 -10 -18 -10 -40z"/>
<path d="M5910 2031 c0 -30 4 -41 15 -41 10 0 15 10 15 30 0 20 5 30 15 30 10
0 15 -10 15 -30 0 -16 5 -30 11 -30 6 0 9 16 7 38 -3 35 -5 37 -40 40 l-38 3
0 -40z"/>
<path d="M6015 2050 c-11 -35 4 -63 31 -57 17 3 24 0 24 -10 0 -11 -7 -13 -25
-9 -14 4 -25 2 -25 -3 0 -16 20 -23 46 -17 22 6 24 11 24 61 l0 55 -34 0 c-26
0 -36 -5 -41 -20z m55 -21 c0 -20 -24 -26 -35 -9 -8 13 14 42 26 34 5 -3 9
-14 9 -25z"/>
<path d="M10189 2058 c-11 -8 -11 -9 3 -4 10 3 20 1 23 -3 2 -5 -5 -11 -16
-14 -26 -7 -20 -31 9 -35 18 -3 22 2 22 26 0 32 -19 46 -41 30z m31 -38 c0 -5
-7 -10 -15 -10 -8 0 -15 5 -15 10 0 6 7 10 15 10 8 0 15 -4 15 -10z"/>
<path d="M10363 2063 c-7 -3 -12 -19 -12 -36 l1 -32 7 29 c3 17 11 30 16 30 6
0 13 -13 16 -30 l7 -29 1 31 c1 32 -12 45 -36 37z"/>
<path d="M10433 2063 c-19 -7 -16 -50 3 -57 14 -5 15 -4 4 9 -14 17 -6 50 11
39 6 -3 9 -22 7 -40 -4 -35 5 -46 16 -18 18 46 -3 79 -41 67z"/>
<path d="M10500 2054 c-11 -13 -10 -16 8 -21 12 -3 22 -10 22 -15 0 -5 -10 -6
-21 -3 -15 5 -19 4 -15 -4 4 -6 13 -11 21 -11 23 0 29 22 11 36 -10 7 -15 17
-11 23 10 16 -1 13 -15 -5z"/>
<path d="M13955 2063 c-170 -3 -195 -7 -195 -29 0 -14 18 -15 157 -8 118 5
168 11 198 25 32 14 35 17 15 16 -14 -1 -92 -3 -175 -4z"/>
<path d="M10120 2046 c0 -9 7 -16 15 -16 8 0 15 -5 15 -11 0 -6 -7 -9 -15 -5
-8 3 -15 1 -15 -4 0 -14 37 -12 46 2 4 6 2 14 -4 16 -7 2 -19 10 -27 19 -13
13 -15 13 -15 -1z"/>
<path d="M10256 2040 c10 -40 22 -46 34 -15 6 15 9 30 6 32 -2 3 -7 -6 -11
-18 l-7 -22 -15 24 -14 24 7 -25z"/>
<path d="M10322 2030 c0 -19 2 -27 5 -17 2 9 2 25 0 35 -3 9 -5 1 -5 -18z"/>
<path d="M4703 1975 c0 -27 2 -38 4 -22 2 15 2 37 0 50 -2 12 -4 0 -4 -28z"/>
<path d="M14071 2006 c-65 -23 -47 -45 46 -60 39 -6 42 -5 38 15 -3 12 -6 22
-7 23 -2 1 -12 8 -23 17 -17 14 -25 15 -54 5z"/>
<path d="M13760 1987 c0 -23 1 -23 93 -19 63 3 103 10 127 23 l35 18 -127 1
c-127 0 -128 0 -128 -23z"/>
<path d="M4872 1960 c0 -14 2 -19 5 -12 2 6 2 18 0 25 -3 6 -5 1 -5 -13z"/>
<path d="M13967 1964 c-62 -33 -6 -72 118 -81 62 -5 72 -3 72 11 0 17 -10 21
-70 32 -21 3 -51 17 -65 29 -25 21 -30 22 -55 9z"/>
<path d="M13798 1953 c-28 -3 -38 -9 -38 -22 0 -15 7 -16 53 -11 47 5 97 24
97 35 0 5 -51 4 -112 -2z"/>
<path d="M4788 1943 c7 -3 16 -2 19 1 4 3 -2 6 -13 5 -11 0 -14 -3 -6 -6z"/>
<path d="M13878 1916 c-10 -7 -18 -18 -18 -23 0 -38 111 -72 232 -73 56 0 66
3 62 15 -4 8 -15 15 -26 15 -48 0 -161 34 -187 56 -33 27 -39 28 -63 10z"/>
<path d="M13760 1885 c0 -19 11 -19 36 0 18 14 18 14 -8 15 -18 0 -28 -5 -28
-15z"/>
<path d="M13806 1877 c-11 -8 -17 -23 -14 -38 2 -19 15 -29 59 -46 64 -26 222
-48 272 -39 49 9 45 36 -5 36 -98 0 -258 50 -271 85 -8 18 -18 19 -41 2z"/>
<path d="M13762 1799 c4 -63 14 -71 125 -94 76 -16 259 -20 268 -6 9 16 -11
22 -118 37 -149 21 -205 39 -245 81 l-33 36 3 -54z"/>
<path d="M5176 1818 c-26 -15 -19 -45 14 -60 17 -7 30 -19 30 -25 0 -16 -32
-17 -48 -1 -9 9 -12 9 -12 0 0 -20 38 -34 60 -22 30 16 25 46 -10 60 -16 7
-30 16 -30 20 0 14 33 21 41 8 4 -7 11 -9 14 -6 19 19 -31 41 -59 26z"/>
<path d="M5270 1805 c-8 -9 -9 -15 -2 -15 6 0 14 5 17 10 9 15 25 12 32 -6 3
-9 -7 -28 -28 -50 l-33 -34 45 1 c37 1 40 2 15 8 -27 5 -28 7 -12 20 9 8 22
23 27 33 20 38 -33 66 -61 33z"/>
<path d="M5367 1813 c-12 -12 -7 -23 7 -17 11 4 16 -6 19 -43 l3 -48 2 58 c2
42 -2 57 -11 57 -8 0 -17 -3 -20 -7z"/>
<path d="M5434 1796 c-11 -45 -1 -81 24 -84 45 -7 67 41 42 89 -16 28 -58 25
-66 -5z m54 -29 c2 -27 -1 -39 -13 -44 -30 -11 -49 49 -23 75 20 20 33 8 36
-31z"/>
<path d="M5582 1808 c-7 -7 -12 -26 -12 -43 0 -36 15 -55 46 -55 23 0 34 17
34 55 0 13 -3 30 -6 39 -7 19 -45 21 -62 4z m51 -20 c6 -8 7 -27 3 -42 -9 -37
-40 -31 -44 7 -6 54 17 74 41 35z"/>
<path d="M5678 1795 c-18 -40 0 -80 37 -80 22 0 30 6 35 25 11 43 -3 75 -33
78 -21 3 -29 -2 -39 -23z m58 -9 c9 -37 1 -61 -21 -61 -15 0 -21 8 -23 28 -2
16 -1 35 2 43 9 23 35 16 42 -10z"/>
<path d="M13760 1697 c0 -30 4 -37 31 -46 41 -14 39 -14 39 8 0 14 8 21 28 23
25 3 23 4 -18 20 -25 9 -53 19 -62 23 -15 6 -18 2 -18 -28z"/>
<path d="M13760 1590 c0 -43 3 -50 19 -50 11 0 26 -3 35 -6 13 -5 16 1 16 33
0 35 -4 41 -35 56 l-35 17 0 -50z"/>
<path d="M13885 1617 c-34 -21 -45 -41 -43 -80 3 -61 66 -101 117 -75 29 15
39 38 17 38 -9 0 -16 5 -16 10 0 6 11 10 25 10 14 0 25 6 25 13 0 29 -13 57
-27 57 -8 0 -12 4 -8 9 7 12 -26 31 -52 30 -10 0 -27 -6 -38 -12z"/>
<path d="M13760 1495 l0 -41 36 4 c29 4 35 8 32 26 -2 14 -12 22 -28 25 -14 1
-28 8 -32 15 -4 6 -8 -7 -8 -29z"/>
<path d="M13760 1412 c0 -20 4 -23 32 -20 48 4 50 34 4 40 -32 4 -36 2 -36
-20z"/>
<path d="M13880 1379 c48 -6 44 -7 -33 -5 l-87 1 0 -97 0 -98 198 0 198 0 -1
98 0 97 -50 7 c-28 3 -102 6 -165 5 -94 0 -105 -2 -60 -8z"/>
<path d="M5110 1120 c0 -5 5 -10 11 -10 5 0 7 5 4 10 -3 6 -8 10 -11 10 -2 0
-4 -4 -4 -10z"/>
<path d="M4533 1113 c13 -3 17 -15 17 -49 0 -24 5 -44 10 -44 6 0 10 20 10 44
0 34 4 46 18 49 9 3 -3 5 -28 5 -25 0 -37 -2 -27 -5z"/>
<path d="M5067 1107 c-8 -24 5 -87 19 -87 12 0 12 4 2 20 -10 15 -10 25 -2 38
8 13 8 20 -1 29 -10 9 -14 9 -18 0z"/>
<path d="M6000 1096 c-5 -14 -14 -37 -20 -51 -6 -17 -6 -25 1 -25 5 0 12 7 15
15 4 8 14 15 24 15 10 0 20 -7 24 -15 3 -8 10 -15 15 -15 12 0 -24 93 -38 98
-6 2 -15 -8 -21 -22z m30 -21 c0 -8 -4 -15 -10 -15 -5 0 -10 7 -10 15 0 8 5
15 10 15 6 0 10 -7 10 -15z"/>
<path d="M6457 1107 c-7 -19 6 -80 18 -84 14 -4 12 74 -1 87 -8 8 -13 7 -17
-3z"/>
<path d="M7033 1104 c-6 -16 13 -38 40 -47 6 -2 7 -9 3 -15 -5 -9 -12 -9 -28
-1 -16 9 -19 8 -16 -3 3 -7 18 -13 34 -13 22 0 30 5 32 22 3 17 -3 24 -22 29
-14 3 -26 12 -26 20 0 17 22 18 39 2 11 -11 13 -10 9 2 -7 22 -57 25 -65 4z"/>
<path d="M7117 1107 c-7 -19 6 -80 18 -84 14 -4 12 74 -1 87 -8 8 -13 7 -17
-3z"/>
<path d="M7247 1107 c-7 -19 6 -80 18 -84 14 -4 12 74 -1 87 -8 8 -13 7 -17
-3z"/>
<path d="M7930 1070 c0 -46 2 -50 24 -50 31 0 56 24 56 54 0 30 -18 46 -52 46
-27 0 -28 -2 -28 -50z m55 5 c0 -23 -5 -31 -22 -33 -19 -3 -23 1 -23 26 0 33
8 44 30 40 9 -2 15 -14 15 -33z"/>
<path d="M8107 1107 c-9 -26 5 -87 21 -87 12 0 13 3 4 12 -16 16 -15 45 0 50
9 3 8 9 -4 21 -12 12 -17 13 -21 4z"/>
<path d="M8648 1095 c-24 -52 36 -103 71 -61 10 12 6 14 -21 13 -26 -2 -34 2
-36 19 -4 29 23 51 43 34 17 -14 31 -8 20 9 -3 6 -20 11 -36 11 -22 0 -32 -7
-41 -25z"/>
<path d="M8752 1070 c0 -41 2 -48 7 -25 3 17 13 30 21 30 8 0 18 -13 22 -30 6
-26 6 -25 5 10 -2 33 -6 40 -22 40 -11 0 -23 7 -27 15 -4 8 -6 -10 -6 -40z"/>
<path d="M9160 1070 c0 -27 5 -50 10 -50 6 0 10 23 10 50 0 28 -4 50 -10 50
-5 0 -10 -22 -10 -50z"/>
<path d="M9740 1100 c-26 -48 30 -104 67 -67 14 14 12 15 -18 14 -27 -2 -35 2
-37 19 -4 29 23 51 43 34 17 -14 31 -8 20 9 -11 19 -63 13 -75 -9z"/>
<path d="M9917 1107 c-7 -19 6 -80 18 -84 14 -4 12 74 -1 87 -8 8 -13 7 -17
-3z"/>
<path d="M4610 1060 c0 -22 5 -40 10 -40 6 0 10 14 10 30 0 17 5 30 10 30 6 0
10 5 10 10 0 6 -9 10 -20 10 -17 0 -20 -7 -20 -40z"/>
<path d="M4675 1090 c-3 -6 4 -10 17 -11 21 -1 21 -1 -5 -11 -39 -14 -32 -42
11 -46 27 -3 32 0 32 18 0 45 -37 79 -55 50z m30 -50 c-3 -5 -10 -10 -16 -10
-5 0 -9 5 -9 10 0 6 7 10 16 10 8 0 12 -4 9 -10z"/>
<path d="M4740 1059 c0 -22 5 -39 10 -39 6 0 10 14 10 30 0 20 5 30 15 30 10
0 15 -10 15 -30 0 -16 5 -30 10 -30 12 0 13 49 2 66 -4 7 -19 12 -34 12 -26 0
-28 -4 -28 -39z"/>
<path d="M4834 1085 c-7 -18 3 -35 22 -35 8 0 13 -4 9 -10 -3 -5 -12 -7 -20
-3 -8 3 -15 0 -15 -6 0 -15 47 -14 56 1 4 6 -3 19 -16 30 -18 14 -19 18 -6 18
10 0 14 5 11 10 -9 15 -35 12 -41 -5z"/>
<path d="M4910 1090 c-12 -8 -8 -10 15 -11 l30 -1 -28 -10 c-36 -13 -32 -42 6
-46 27 -3 28 -2 25 35 -3 40 -20 51 -48 33z m35 -50 c-3 -5 -10 -10 -16 -10
-5 0 -9 5 -9 10 0 6 7 10 16 10 8 0 12 -4 9 -10z"/>
<path d="M4992 1088 c-25 -25 -6 -68 29 -68 10 0 21 5 25 11 4 7 -2 9 -17 7
-19 -2 -25 2 -27 21 -3 21 -1 23 24 17 24 -6 26 -5 15 8 -16 19 -33 20 -49 4z"/>
<path d="M5110 1060 c0 -22 5 -40 10 -40 6 0 10 18 10 40 0 22 -4 40 -10 40
-5 0 -10 -18 -10 -40z"/>
<path d="M5150 1080 c-14 -26 3 -60 30 -60 27 0 44 34 30 60 -6 11 -19 20 -30
20 -11 0 -24 -9 -30 -20z m45 -25 c0 -28 -29 -25 -33 3 -3 19 0 23 15 20 10
-2 18 -12 18 -23z"/>
<path d="M5230 1059 c0 -21 5 -39 10 -39 6 0 10 14 10 30 0 20 5 30 15 30 10
0 15 -10 15 -30 0 -16 5 -30 10 -30 14 0 12 56 -2 67 -7 5 -23 10 -35 11 -20
1 -23 -4 -23 -39z"/>
<path d="M6080 1058 c0 -21 5 -38 10 -38 6 0 10 14 10 30 0 17 5 30 10 30 6 0
10 -13 10 -30 0 -16 5 -30 10 -30 6 0 10 14 10 30 0 20 5 30 15 30 10 0 15
-10 15 -30 0 -16 5 -30 10 -30 13 0 13 40 0 60 -6 9 -26 15 -55 16 l-45 1 0
-39z"/>
<path d="M6210 1085 c-24 -29 8 -75 44 -62 30 12 14 77 -20 77 -6 0 -17 -7
-24 -15z m38 -27 c-2 -13 -7 -23 -13 -23 -5 0 -11 10 -13 23 -2 15 2 22 13 22
11 0 15 -7 13 -22z"/>
<path d="M6293 1065 c2 -36 5 -40 30 -41 25 -1 27 1 26 40 -1 38 -2 39 -8 11
-3 -17 -13 -30 -21 -30 -8 0 -18 13 -22 30 -6 26 -6 25 -5 -10z"/>
<path d="M6370 1059 c0 -21 5 -39 10 -39 6 0 10 14 10 30 0 20 5 30 15 30 10
0 15 -10 15 -30 0 -16 5 -30 10 -30 14 0 12 56 -2 67 -7 5 -23 10 -35 11 -20
1 -23 -4 -23 -39z"/>
<path d="M7175 1090 c-3 -6 4 -10 17 -10 22 -1 22 -2 -5 -16 -35 -19 -30 -38
11 -42 29 -3 32 -1 32 25 0 42 -38 71 -55 43z m30 -50 c-3 -5 -10 -10 -16 -10
-5 0 -9 5 -9 10 0 6 7 10 16 10 8 0 12 -4 9 -10z"/>
<path d="M7296 1087 c-5 -9 -5 -28 -2 -42 5 -20 13 -25 36 -25 28 0 30 2 30
40 0 48 -17 54 -22 8 -4 -42 -21 -39 -29 4 -4 26 -7 29 -13 15z"/>
<path d="M7384 1085 c-7 -18 3 -35 22 -35 8 0 13 -4 9 -10 -3 -5 -12 -7 -20
-3 -8 3 -15 0 -15 -6 0 -15 47 -14 56 1 4 6 -3 19 -16 30 -18 14 -19 18 -6 18
10 0 14 5 11 10 -9 15 -35 12 -41 -5z"/>
<path d="M8035 1090 c-3 -6 4 -10 17 -10 22 -1 22 -2 -5 -16 -35 -19 -30 -38
11 -42 29 -3 32 -1 32 25 0 42 -38 71 -55 43z m30 -50 c-3 -5 -10 -10 -16 -10
-5 0 -9 5 -9 10 0 6 7 10 16 10 8 0 12 -4 9 -10z"/>
<path d="M8160 1086 c-19 -24 -8 -61 19 -64 13 -2 28 2 35 9 8 9 6 10 -11 6
-13 -3 -26 -1 -29 4 -3 5 6 9 20 9 28 0 34 18 14 38 -16 16 -33 15 -48 -2z
m37 -12 c-3 -3 -12 -4 -19 -1 -8 3 -5 6 6 6 11 1 17 -2 13 -5z"/>
<path d="M8835 1091 c-3 -7 3 -11 17 -12 l23 0 -22 -11 c-35 -17 -30 -48 8
-48 29 0 30 2 27 38 -2 29 -8 38 -25 40 -11 2 -24 -2 -28 -7z m35 -51 c0 -5
-4 -10 -9 -10 -6 0 -13 5 -16 10 -3 6 1 10 9 10 9 0 16 -4 16 -10z"/>
<path d="M8910 1059 c0 -21 5 -39 10 -39 6 0 10 14 10 30 0 20 5 30 15 30 10
0 15 -10 15 -30 0 -16 5 -30 10 -30 14 0 12 56 -2 67 -7 5 -23 10 -35 11 -20
1 -23 -4 -23 -39z"/>
<path d="M8995 1092 c-9 -10 -5 -72 5 -72 6 0 10 14 10 30 0 20 5 30 15 30 10
0 15 -10 15 -30 0 -16 5 -30 11 -30 6 0 9 16 7 38 -3 33 -6 37 -30 38 -15 1
-30 -1 -33 -4z"/>
<path d="M9092 1091 c-20 -12 -11 -65 12 -69 10 -2 23 2 30 9 8 9 7 11 -6 6
-10 -3 -20 -2 -23 3 -4 6 2 10 13 10 26 0 33 10 21 31 -10 20 -26 24 -47 10z
m35 -17 c-3 -3 -12 -4 -19 -1 -8 3 -5 6 6 6 11 1 17 -2 13 -5z"/>
<path d="M9845 1091 c-3 -7 3 -11 17 -11 22 -1 22 -1 -4 -16 -35 -18 -27 -44
14 -44 28 0 29 2 26 38 -2 29 -8 38 -25 40 -11 2 -24 -2 -28 -7z m35 -45 c0
-11 -19 -15 -25 -6 -3 5 1 10 9 10 9 0 16 -2 16 -4z"/>
<path d="M9972 1088 c-25 -25 -6 -68 29 -68 10 0 21 5 25 11 4 7 0 9 -14 5
-11 -4 -23 -2 -27 4 -4 6 4 10 19 10 15 0 26 6 26 13 0 16 -20 37 -35 37 -6 0
-16 -5 -23 -12z m35 -14 c-3 -3 -12 -4 -19 -1 -8 3 -5 6 6 6 11 1 17 -2 13 -5z"/>
<path d="M10052 1088 c-27 -27 0 -77 34 -64 10 4 14 2 11 -6 -2 -7 -15 -12
-28 -10 -17 2 -21 0 -12 -9 6 -6 19 -9 29 -7 15 2 20 14 22 53 3 47 1 51 -21
53 -13 1 -29 -4 -35 -10z m43 -28 c0 -8 -8 -16 -17 -18 -13 -2 -18 3 -18 18 0
15 5 20 18 18 9 -2 17 -10 17 -18z"/>
<path d="M10140 1085 c-24 -29 8 -75 44 -62 30 12 14 77 -20 77 -6 0 -17 -7
-24 -15z m38 -27 c-2 -13 -7 -23 -13 -23 -5 0 -11 10 -13 23 -2 15 2 22 13 22
11 0 15 -7 13 -22z"/>
<path d="M10221 1055 l1 -40 9 33 c5 17 14 32 19 32 6 0 10 4 10 9 0 6 -9 9
-20 8 -17 -1 -20 -8 -19 -42z"/>
<path d="M10277 1078 c4 -13 7 -38 7 -55 -1 -46 13 -41 37 14 23 53 20 83 -3
38 l-16 -30 -7 28 c-4 15 -11 27 -17 27 -5 0 -6 -9 -1 -22z"/>
<path d="M1000 840 c0 -5 5 -10 11 -10 5 0 7 5 4 10 -3 6 -8 10 -11 10 -2 0
-4 -4 -4 -10z"/>
<path d="M740 791 c0 -28 5 -51 10 -51 6 0 10 9 10 19 0 13 8 21 23 23 16 2
22 10 22 28 0 21 -5 26 -32 28 l-33 3 0 -50z m53 25 c7 -16 -1 -26 -20 -26 -7
0 -13 9 -13 20 0 23 25 27 33 6z"/>
<path d="M843 813 c-19 -7 -16 -62 3 -70 38 -14 67 32 39 61 -17 17 -22 18
-42 9z m37 -32 c0 -11 -4 -22 -9 -25 -12 -8 -34 21 -26 34 11 17 35 11 35 -9z"/>
<path d="M920 805 c-24 -29 8 -75 44 -62 30 12 14 77 -20 77 -6 0 -17 -7 -24
-15z m45 -15 c8 -13 -14 -42 -26 -34 -5 3 -9 14 -9 25 0 20 24 26 35 9z"/>
<path d="M1000 781 c0 -21 -3 -48 -7 -58 -6 -16 -5 -16 10 -4 19 15 24 86 7
96 -6 4 -10 -10 -10 -34z"/>
<path d="M1045 810 c-3 -6 4 -10 17 -10 22 -1 22 -2 -5 -16 -35 -19 -30 -39
11 -41 29 -1 32 2 32 26 0 40 -38 69 -55 41z m27 -52 c-6 -6 -15 -8 -19 -4 -4
4 -1 11 7 16 19 12 27 3 12 -12z"/>
<path d="M1121 775 c1 -37 2 -38 8 -10 3 17 13 30 21 30 8 0 18 -13 22 -30 6
-26 6 -25 5 10 -2 36 -4 40 -29 40 -26 1 -28 -2 -27 -40z"/>
<path d="M400 695 c0 -60 3 -75 15 -75 9 0 15 9 15 25 0 20 5 25 24 25 27 0
56 24 56 46 0 26 -39 54 -75 54 l-35 0 0 -75z m73 31 c6 -16 -11 -36 -30 -36
-7 0 -13 11 -13 25 0 18 5 25 19 25 10 0 21 -6 24 -14z"/>
<path d="M3702 758 c-16 -16 -16 -120 0 -136 7 -7 21 -12 33 -11 17 1 16 2 -5
8 -23 6 -25 11 -25 71 0 60 2 65 25 71 21 6 22 7 5 8 -12 1 -26 -4 -33 -11z"/>
<path d="M3800 737 c0 -4 6 -16 12 -27 10 -16 10 -24 0 -40 -16 -26 0 -26 23
0 18 20 18 21 -8 48 -15 14 -27 23 -27 19z"/>
<path d="M1261 594 c-1 -49 0 -51 27 -50 20 1 28 7 30 24 4 27 -16 55 -34 48
-7 -3 -15 3 -17 12 -3 9 -5 -6 -6 -34z m44 -14 c0 -13 -6 -25 -12 -27 -16 -6
-27 21 -19 43 9 23 31 11 31 -16z"/>
<path d="M1340 590 c0 -29 2 -51 5 -48 8 7 9 87 2 95 -4 3 -7 -18 -7 -47z"/>
<path d="M1681 594 c-1 -49 0 -51 27 -50 23 1 27 6 30 34 2 17 -2 33 -7 34 -6
0 -17 1 -23 2 -7 1 -16 8 -20 16 -4 8 -7 -8 -7 -36z m44 -14 c0 -13 -6 -25
-12 -27 -16 -6 -27 21 -19 43 9 23 31 11 31 -16z"/>
<path d="M1772 590 c1 -45 2 -49 7 -21 8 46 29 51 34 9 l4 -33 -1 35 c-1 24
-6 35 -16 35 -8 0 -18 7 -22 15 -4 8 -6 -10 -6 -40z"/>
<path d="M2293 590 c0 -30 2 -43 4 -27 2 15 2 39 0 55 -2 15 -4 2 -4 -28z"/>
<path d="M2366 624 c-18 -48 9 -98 42 -77 36 22 26 93 -12 93 -13 0 -27 -7
-30 -16z m49 -34 c0 -44 -31 -56 -41 -16 -8 35 2 58 23 54 13 -2 18 -13 18
-38z"/>
<path d="M2471 606 c-27 -43 -26 -46 4 -46 14 0 25 -6 25 -12 0 -10 2 -10 8
-1 10 15 3 93 -8 93 -5 0 -18 -15 -29 -34z m29 -11 c0 -16 -6 -25 -15 -25 -18
0 -20 21 -3 38 17 17 18 16 18 -13z"/>
<path d="M2562 633 l28 -4 -20 -39 c-28 -56 -24 -64 5 -10 31 58 31 60 -7 59
-31 -2 -31 -2 -6 -6z"/>
<path d="M2642 624 c-13 -9 -22 -26 -22 -40 0 -30 17 -64 31 -64 6 0 3 7 -6
16 -10 10 -15 29 -13 48 2 23 10 33 32 41 24 8 31 6 47 -14 10 -13 19 -19 19
-13 0 16 -30 42 -48 42 -10 0 -28 -7 -40 -16z"/>
<path d="M3480 625 c0 -8 -6 -12 -12 -10 -23 8 -40 -11 -36 -41 2 -24 8 -29
31 -30 26 -1 27 1 27 47 0 27 -2 49 -5 49 -3 0 -5 -7 -5 -15z m-5 -45 c0 -27
-22 -39 -31 -16 -8 22 3 49 19 43 6 -2 12 -14 12 -27z"/>
<path d="M2168 625 c-10 -11 8 -79 22 -82 12 -4 13 -3 1 5 -9 6 -12 21 -9 41
4 30 -3 47 -14 36z"/>
<path d="M741 564 c1 -32 4 -49 6 -38 3 15 10 20 22 17 28 -7 46 22 33 52 -7
14 -17 25 -23 25 -8 0 -6 -7 5 -19 19 -21 11 -54 -13 -49 -10 2 -16 13 -16 30
0 14 -3 30 -7 34 -5 4 -7 -19 -7 -52z"/>
<path d="M842 611 c-8 -5 -12 -21 -10 -37 2 -23 8 -29 28 -29 18 0 26 6 28 23
3 22 -13 52 -27 52 -3 0 -12 -4 -19 -9z m33 -31 c0 -27 -22 -39 -31 -16 -8 22
3 49 19 43 6 -2 12 -14 12 -27z"/>
<path d="M920 606 c-17 -21 -8 -60 14 -64 37 -8 54 48 22 70 -16 11 -22 10
-36 -6z m39 -14 c12 -23 -2 -47 -23 -39 -24 10 -20 57 5 57 5 0 13 -8 18 -18z"/>
<path d="M1040 609 c-12 -8 -11 -9 6 -4 18 5 21 1 22 -25 0 -21 -4 -30 -15
-30 -9 0 -13 6 -9 15 3 8 1 15 -4 15 -6 0 -10 -9 -10 -20 0 -15 7 -20 26 -20
23 0 25 3 22 37 -3 39 -14 49 -38 32z"/>
<path d="M1111 576 l2 -41 6 35 c4 22 12 35 21 35 9 0 17 -13 21 -35 l6 -35 2
31 c1 34 -13 51 -41 51 -14 0 -18 -9 -17 -41z"/>
<path d="M1378 608 c5 -7 12 -26 15 -43 4 -28 4 -28 6 6 1 26 -4 39 -15 43
-13 5 -14 3 -6 -6z"/>
<path d="M1430 610 c-12 -8 -10 -10 10 -8 20 3 24 -2 25 -22 0 -16 -6 -26 -19
-28 -14 -3 -17 0 -13 12 4 9 2 16 -4 16 -6 0 -9 -8 -7 -17 2 -12 13 -18 31
-19 23 -1 27 3 27 25 0 25 -16 51 -29 51 -4 0 -13 -5 -21 -10z"/>
<path d="M1500 581 c0 -23 2 -41 4 -41 8 0 12 71 4 76 -4 3 -8 -13 -8 -35z"/>
<path d="M1566 611 c-3 -5 2 -8 11 -7 25 2 24 -47 -1 -52 -14 -3 -17 0 -13 12
4 9 2 16 -4 16 -6 0 -9 -8 -7 -17 2 -12 13 -18 31 -19 24 -1 27 2 27 31 0 21
-6 35 -16 39 -20 8 -22 8 -28 -3z"/>
<path d="M1630 610 c0 -5 4 -10 9 -10 6 0 13 5 16 10 3 6 -1 10 -9 10 -9 0
-16 -4 -16 -10z"/>
<path d="M1856 611 c-3 -5 2 -7 12 -4 15 4 19 -1 20 -27 0 -18 4 -35 7 -38 4
-4 5 11 3 33 -2 27 -8 41 -20 43 -9 2 -19 -1 -22 -7z"/>
<path d="M1933 580 c0 -25 2 -35 4 -22 2 12 2 32 0 45 -2 12 -4 2 -4 -23z"/>
<path d="M2001 564 c1 -32 4 -49 6 -38 3 16 10 20 23 17 25 -7 45 30 30 57 -6
11 -16 20 -22 20 -6 0 -4 -8 6 -19 19 -21 11 -53 -13 -49 -10 2 -16 14 -16 30
-1 15 -4 30 -8 34 -4 4 -6 -19 -6 -52z"/>
<path d="M2096 611 c-3 -5 2 -7 12 -4 15 4 19 -1 20 -27 0 -18 4 -35 7 -38 4
-4 5 11 3 33 -2 27 -8 41 -20 43 -9 2 -19 -1 -22 -7z"/>
<path d="M2220 606 c-27 -33 12 -88 41 -59 6 6 1 9 -13 9 -25 -1 -37 29 -18
48 8 8 15 6 26 -8 11 -16 14 -17 14 -4 0 9 -7 19 -16 22 -21 8 -20 8 -34 -8z"/>
<path d="M2773 613 c-8 -3 -12 -20 -12 -41 l2 -37 6 33 c8 44 25 45 30 2 l4
-35 6 35 c5 26 11 35 24 34 10 -1 15 1 12 4 -8 8 -55 11 -72 5z"/>
<path d="M2870 616 c0 -2 7 -20 15 -41 13 -30 14 -40 3 -53 -12 -15 -11 -15 4
-4 9 7 23 33 32 58 17 51 12 59 -7 12 l-13 -33 -12 33 c-9 26 -22 43 -22 28z"/>
<path d="M3002 611 c-20 -12 -11 -65 12 -69 10 -2 23 1 29 7 9 9 5 11 -13 9
-21 -3 -25 1 -25 22 0 21 4 25 25 22 19 -2 22 0 10 8 -18 12 -21 12 -38 1z"/>
<path d="M3090 616 c0 -2 7 -7 16 -10 8 -3 12 -2 9 4 -6 10 -25 14 -25 6z"/>
<path d="M3188 588 c-4 -42 -30 -44 -39 -3 -6 27 -7 27 -8 5 -1 -34 11 -49 37
-47 19 1 22 7 22 39 0 47 -8 50 -12 6z"/>
<path d="M3243 613 c-8 -3 -12 -20 -12 -41 l2 -37 6 34 c8 43 28 51 37 14 9
-44 12 -50 13 -25 1 25 -15 62 -27 61 -4 0 -13 -3 -19 -6z"/>
<path d="M3362 611 c-20 -12 -11 -65 12 -69 10 -2 23 1 29 7 9 9 5 11 -13 9
-27 -3 -40 26 -20 46 8 8 15 6 26 -8 8 -11 14 -15 14 -10 0 11 -20 34 -29 34
-4 0 -12 -4 -19 -9z"/>
<path d="M3524 580 c1 -31 4 -35 29 -36 25 -1 27 2 26 35 l-1 36 -9 -32 c-5
-18 -16 -33 -24 -33 -8 0 -15 13 -18 33 -4 32 -4 32 -3 -3z"/>
<path d="M1002 575 c-1 -23 -5 -45 -9 -51 -5 -5 -2 -4 5 2 8 7 12 26 9 50 l-4
39 -1 -40z"/>
<path d="M2657 603 c-10 -9 -8 -53 2 -53 4 0 6 11 3 25 -3 19 0 25 13 25 13 0
16 -6 13 -25 -3 -15 -1 -25 7 -25 7 0 10 11 7 30 -4 29 -28 41 -45 23z"/>
<path d="M3070 598 c0 -9 9 -20 20 -23 27 -9 26 -29 -1 -22 -16 4 -19 3 -11
-5 6 -6 18 -8 26 -5 20 8 21 37 1 37 -7 0 -19 8 -24 18 -9 15 -10 16 -11 0z"/>
<path d="M1198 583 c6 -2 18 -2 25 0 6 3 1 5 -13 5 -14 0 -19 -2 -12 -5z"/>
<path d="M2852 565 c0 -16 2 -22 5 -12 2 9 2 23 0 30 -3 6 -5 -1 -5 -18z"/>
<path d="M1847 574 c-10 -11 5 -34 22 -34 13 1 13 2 -3 11 -15 9 -16 13 -5 20
8 5 9 9 3 9 -6 0 -13 -3 -17 -6z"/>
<path d="M2087 574 c-10 -11 5 -34 22 -34 13 1 13 2 -3 11 -15 9 -16 13 -5 20
8 5 9 9 3 9 -6 0 -13 -3 -17 -6z"/>
<path d="M1640 550 c0 -5 5 -10 11 -10 5 0 7 5 4 10 -3 6 -8 10 -11 10 -2 0
-4 -4 -4 -10z"/>
<path d="M1960 550 c0 -5 5 -10 11 -10 5 0 7 5 4 10 -3 6 -8 10 -11 10 -2 0
-4 -4 -4 -10z"/>
<path d="M11420 401 c0 -5 9 -11 20 -14 17 -4 20 -14 20 -56 0 -28 5 -51 10
-51 6 0 10 25 10 55 0 48 2 55 20 55 11 0 20 5 20 10 0 6 -22 10 -50 10 -27 0
-50 -4 -50 -9z"/>
<path d="M12470 400 c0 -5 5 -10 10 -10 6 0 10 5 10 10 0 6 -4 10 -10 10 -5 0
-10 -4 -10 -10z"/>
<path d="M12003 380 c-8 -12 -9 -21 -3 -25 6 -3 10 -21 10 -40 0 -21 6 -35 16
-39 22 -8 31 1 16 16 -14 14 -16 54 -2 63 9 6 -8 45 -20 45 -3 0 -11 -9 -17
-20z"/>
<path d="M11540 360 c-11 -11 -20 -27 -20 -35 0 -17 35 -55 50 -55 15 0 50 38
50 55 0 17 -35 55 -50 55 -5 0 -19 -9 -30 -20z m45 -36 c0 -19 -5 -29 -15 -29
-16 0 -25 28 -16 51 10 25 31 10 31 -22z"/>
<path d="M11663 373 c-21 -4 -23 -10 -23 -69 0 -36 4 -64 10 -64 6 0 10 9 10
21 0 15 5 19 19 14 24 -7 51 19 51 50 0 23 -24 56 -38 54 -4 -1 -17 -4 -29 -6z
m37 -47 c0 -28 -8 -36 -26 -29 -17 6 -19 50 -1 56 18 7 27 -2 27 -27z"/>
<path d="M11812 364 c-27 -19 -28 -55 -2 -79 17 -15 24 -16 45 -7 14 6 25 16
25 22 0 13 -6 13 -30 0 -24 -13 -43 15 -29 42 8 15 14 16 30 7 28 -14 39 -1
15 17 -25 18 -27 17 -54 -2z"/>
<path d="M11914 364 c-18 -15 -18 -15 8 -10 15 4 30 2 33 -4 4 -6 -7 -13 -24
-16 -24 -5 -31 -12 -31 -29 0 -27 16 -35 53 -28 24 5 27 10 27 44 0 28 -5 41
-19 49 -25 13 -24 13 -47 -6z m40 -59 c-6 -16 -34 -21 -34 -7 0 13 11 22 26
22 8 0 11 -6 8 -15z"/>
<path d="M12081 364 c-46 -33 -1 -111 48 -84 28 15 26 21 -5 18 -15 -2 -29 3
-31 10 -3 8 6 12 27 12 26 0 31 3 28 21 -4 30 -40 42 -67 23z m43 -25 c-7 -11
-34 -12 -34 -1 0 14 11 21 26 15 8 -3 11 -9 8 -14z"/>
<path d="M12184 365 c-10 -7 -14 -23 -12 -45 3 -32 6 -35 36 -35 17 0 31 -4
29 -10 -2 -5 -17 -10 -33 -10 -16 -1 -28 -5 -26 -10 1 -6 19 -10 40 -10 l37 0
3 61 3 62 -31 4 c-17 3 -38 0 -46 -7z m53 -49 c-8 -20 -36 -21 -43 -1 -4 8 0
22 7 31 11 13 14 13 27 0 8 -8 12 -22 9 -30z"/>
<path d="M12302 364 c-27 -19 -28 -55 -2 -79 17 -15 24 -16 45 -7 32 15 36 75
6 92 -25 13 -22 13 -49 -6z m48 -39 c0 -7 -6 -18 -14 -24 -20 -17 -39 16 -24
42 7 15 12 16 24 6 8 -6 14 -17 14 -24z"/>
<path d="M12413 373 c-20 -4 -23 -11 -23 -49 0 -32 4 -44 15 -44 10 0 15 11
15 35 0 24 5 35 15 35 8 0 15 7 15 15 0 8 -3 14 -7 14 -5 -1 -18 -4 -30 -6z"/>
<path d="M12531 364 c-26 -19 -27 -55 -3 -77 23 -21 33 -21 58 -2 18 15 18 15
-10 13 -16 -2 -31 2 -33 10 -3 8 6 12 26 12 30 0 39 13 23 36 -13 19 -39 23
-61 8z m39 -25 c0 -5 -7 -9 -15 -9 -15 0 -20 12 -9 23 8 8 24 -1 24 -14z"/>
<path d="M12638 369 c-26 -14 -22 -38 7 -49 14 -5 25 -14 25 -20 0 -13 -13
-13 -27 1 -7 7 -13 7 -17 0 -11 -17 31 -33 54 -21 29 16 24 39 -10 51 -36 13
-30 31 8 23 26 -5 26 -5 8 10 -23 19 -25 19 -48 5z"/>
<path d="M12470 325 c0 -25 5 -45 10 -45 6 0 10 20 10 45 0 25 -4 45 -10 45
-5 0 -10 -20 -10 -45z"/>
<path d="M10 39 l0 -39 7325 0 c4029 0 7325 3 7325 8 0 4 -3281 6 -7291 4
l-7291 -2 -34 34 -34 34 0 -39z"/>
</g>
</svg>
